<svg width="886" height="797" viewBox="0 0 886 797" fill="none" xmlns="http://www.w3.org/2000/svg">
<g clip-path="url(#clip0_1247_1691)">
<path d="M584 700.06C583.28 700.78 582.33 704.06 582.33 704.06C582.33 704.06 581.33 700.91 580.58 700.19C579.83 699.47 576.7 698.44 576.7 698.44C576.7 698.44 579.85 697.44 580.57 696.68C581.29 695.92 582.33 692.81 582.33 692.81C582.33 692.81 583.33 696.01 584.03 696.73C584.73 697.45 587.96 698.44 587.96 698.44C587.96 698.44 584.73 699.44 583.96 700.11" fill="white"/>
<path d="M558 428.06C557.28 428.78 556.33 432.01 556.33 432.01C556.33 432.01 555.33 428.86 554.58 428.14C553.83 427.42 550.7 426.39 550.7 426.39C550.7 426.39 553.85 425.39 554.57 424.63C555.29 423.87 556.33 420.76 556.33 420.76C556.33 420.76 557.33 423.96 558.03 424.68C558.73 425.4 561.96 426.39 561.96 426.39C561.96 426.39 558.73 427.34 557.96 428.06" fill="white"/>
<path d="M862 243.52C826.63 253.76 818.81 299.52 796.9 329.07C766.06 370.75 707.35 378.57 655.5 377.76C603.65 376.95 548.08 371.88 503.59 398.52C456.79 426.52 435.22 481.98 417.84 533.68C400.46 585.38 381.45 641.09 336.91 672.58C299.35 699.15 250.63 703.16 204.62 703.05C147.88 702.93 14.0003 694.92 0.900319 775.83C-0.335439 782.728 -0.30155 789.794 1.00032 796.68H885.7V243.27C881.91 242.32 878.018 241.833 874.11 241.82C870.014 241.819 865.938 242.391 862 243.52V243.52Z" fill="url(#paint0_linear_1247_1691)"/>
<path d="M517.11 608.94C517.202 608.867 517.308 608.814 517.422 608.785C517.535 608.755 517.654 608.749 517.769 608.768C517.885 608.786 517.996 608.828 518.095 608.892C518.194 608.955 518.278 609.038 518.343 609.136C518.408 609.233 518.453 609.343 518.473 609.459C518.494 609.575 518.49 609.693 518.462 609.807C518.435 609.921 518.384 610.028 518.313 610.122C518.242 610.215 518.152 610.293 518.05 610.35C517.923 610.426 517.778 610.466 517.63 610.466C517.482 610.466 517.337 610.426 517.21 610.35C517.008 610.249 516.855 610.072 516.784 609.858C516.713 609.645 516.729 609.411 516.83 609.21C516.892 609.08 516.989 608.969 517.11 608.89" fill="white"/>
<path d="M514.529 612.11C514.532 612.269 514.503 612.428 514.444 612.575C514.384 612.723 514.296 612.858 514.185 612.972C514.073 613.085 513.94 613.175 513.793 613.237C513.646 613.298 513.488 613.33 513.329 613.33C513.114 613.332 512.902 613.275 512.715 613.168C512.529 613.06 512.375 612.904 512.269 612.717C512.162 612.529 512.108 612.317 512.111 612.102C512.115 611.886 512.176 611.676 512.287 611.492C512.399 611.308 512.558 611.157 512.748 611.055C512.938 610.953 513.151 610.903 513.366 610.911C513.582 610.919 513.791 610.984 513.972 611.1C514.154 611.216 514.301 611.378 514.399 611.57C514.482 611.738 514.527 611.923 514.529 612.11" fill="white"/>
<path d="M512.14 618C511.803 618.225 511.407 618.346 511.002 618.346C510.597 618.346 510.201 618.227 509.864 618.002C509.526 617.778 509.263 617.458 509.108 617.084C508.952 616.71 508.911 616.298 508.989 615.901C509.067 615.503 509.261 615.138 509.547 614.851C509.832 614.563 510.197 614.367 510.594 614.287C510.991 614.206 511.403 614.246 511.778 614.399C512.152 614.553 512.473 614.814 512.7 615.15V615.15C512.984 615.602 513.08 616.147 512.97 616.669C512.86 617.191 512.552 617.651 512.11 617.95" fill="white"/>
<path d="M513.16 603.06C513.63 602.83 514.06 603.26 514.16 603.7C514.146 603.795 514.114 603.887 514.065 603.97C514.016 604.053 513.951 604.125 513.874 604.183C513.796 604.24 513.709 604.282 513.615 604.306C513.522 604.329 513.425 604.334 513.33 604.32V604.32C513.244 604.302 513.163 604.268 513.09 604.218C513.018 604.169 512.957 604.105 512.909 604.032C512.862 603.958 512.829 603.876 512.814 603.79C512.799 603.704 512.8 603.615 512.82 603.53C512.84 603.425 512.887 603.328 512.955 603.245C513.023 603.163 513.111 603.1 513.21 603.06" fill="white"/>
<path d="M510.58 606.55C510.633 606.423 510.712 606.309 510.812 606.214C510.912 606.119 511.031 606.045 511.16 605.999C511.29 605.952 511.428 605.932 511.565 605.941C511.703 605.95 511.837 605.987 511.96 606.05C512.163 606.113 512.342 606.24 512.468 606.412C512.595 606.584 512.663 606.792 512.663 607.005C512.663 607.218 512.595 607.426 512.468 607.598C512.342 607.77 512.163 607.897 511.96 607.96H511.81C511.671 607.986 511.529 607.984 511.391 607.954C511.253 607.924 511.122 607.867 511.007 607.786C510.891 607.705 510.793 607.601 510.718 607.482C510.643 607.362 510.593 607.229 510.57 607.09C510.53 606.892 510.55 606.686 510.63 606.5" fill="white"/>
<path d="M510.309 611C510.53 611.34 510.645 611.738 510.64 612.143C510.635 612.548 510.51 612.943 510.28 613.277C510.051 613.611 509.728 613.87 509.351 614.02C508.975 614.171 508.563 614.206 508.166 614.122C507.77 614.039 507.407 613.839 507.124 613.549C506.841 613.26 506.65 612.892 506.575 612.494C506.5 612.096 506.546 611.684 506.705 611.311C506.864 610.939 507.13 610.622 507.469 610.4C507.617 610.306 507.774 610.228 507.939 610.17C508.371 610.03 508.836 610.035 509.265 610.185C509.693 610.335 510.06 610.621 510.309 611" fill="white"/>
<path d="M505.809 602.3C505.911 602.254 506.022 602.229 506.134 602.226C506.246 602.223 506.358 602.243 506.462 602.284C506.566 602.325 506.661 602.386 506.742 602.465C506.822 602.543 506.886 602.637 506.929 602.74C506.978 602.845 507.004 602.959 507.004 603.075C507.004 603.191 506.978 603.305 506.929 603.41C506.885 603.514 506.82 603.608 506.739 603.686C506.658 603.765 506.562 603.826 506.456 603.867C506.351 603.908 506.239 603.928 506.126 603.925C506.013 603.922 505.902 603.896 505.799 603.85C505.712 603.809 505.631 603.755 505.559 603.69C505.399 603.526 505.309 603.305 505.309 603.075C505.309 602.845 505.399 602.624 505.559 602.46C505.63 602.394 505.711 602.34 505.799 602.3" fill="white"/>
<path d="M505 608C505.015 607.682 505.15 607.381 505.379 607.158C505.607 606.935 505.911 606.807 506.23 606.8C506.447 606.819 506.656 606.892 506.839 607.01C507.022 607.129 507.173 607.29 507.28 607.48C507.354 607.622 507.399 607.776 507.412 607.935C507.425 608.094 507.407 608.255 507.357 608.406C507.308 608.558 507.229 608.699 507.125 608.819C507.02 608.94 506.893 609.039 506.75 609.11V609.11C506.466 609.231 506.151 609.259 505.85 609.19C505.608 609.096 505.398 608.934 505.247 608.722C505.096 608.511 505.01 608.26 505 608" fill="white"/>
<path d="M502.89 610.24C503.257 610.075 503.665 610.021 504.062 610.086C504.459 610.151 504.829 610.332 505.124 610.605C505.42 610.879 505.628 611.234 505.723 611.625C505.818 612.016 505.796 612.427 505.659 612.805C505.523 613.184 505.277 613.514 504.954 613.754C504.631 613.995 504.244 614.134 503.842 614.156C503.44 614.178 503.041 614.081 502.693 613.877C502.346 613.673 502.067 613.372 501.89 613.01C501.77 612.766 501.7 612.5 501.683 612.229C501.666 611.958 501.702 611.685 501.791 611.428C501.879 611.171 502.017 610.934 502.197 610.73C502.377 610.526 502.595 610.359 502.84 610.24V610.24" fill="white"/>
<path d="M502.7 617.82C502.397 618.068 502.028 618.221 501.638 618.26C501.249 618.3 500.857 618.225 500.51 618.043C500.163 617.862 499.877 617.583 499.687 617.241C499.497 616.899 499.412 616.509 499.441 616.119C499.471 615.729 499.615 615.356 499.854 615.046C500.094 614.737 500.419 614.504 500.789 614.378C501.159 614.251 501.558 614.236 501.937 614.334C502.316 614.433 502.658 614.64 502.92 614.93C503.011 615.035 503.092 615.149 503.16 615.27C503.389 615.683 503.468 616.162 503.384 616.627C503.3 617.092 503.059 617.513 502.7 617.82" fill="white"/>
<path d="M500.31 606.1C500.549 605.967 500.83 605.935 501.093 606.01C501.355 606.085 501.577 606.261 501.71 606.5C501.842 606.739 501.875 607.02 501.8 607.283C501.725 607.545 501.549 607.767 501.31 607.9C501.192 607.966 501.062 608.007 500.927 608.023C500.793 608.038 500.657 608.027 500.527 607.99C500.397 607.953 500.276 607.89 500.17 607.806C500.064 607.722 499.976 607.618 499.91 607.5C499.844 607.382 499.802 607.252 499.787 607.118C499.772 606.983 499.783 606.847 499.82 606.717C499.857 606.587 499.919 606.466 500.003 606.36C500.088 606.254 500.192 606.166 500.31 606.1Z" fill="white"/>
<path d="M498.69 603.06C498.859 603.005 499.044 603.021 499.202 603.102C499.361 603.184 499.48 603.325 499.535 603.495C499.589 603.665 499.574 603.849 499.492 604.007C499.411 604.166 499.269 604.286 499.1 604.34C498.93 604.394 498.746 604.379 498.587 604.297C498.429 604.216 498.309 604.075 498.255 603.905C498.2 603.735 498.216 603.551 498.297 603.392C498.379 603.234 498.52 603.114 498.69 603.06" fill="white"/>
<path d="M492.32 616.38C492.295 616.555 492.202 616.712 492.062 616.819C491.921 616.926 491.744 616.973 491.57 616.95C491.482 616.939 491.398 616.911 491.322 616.866C491.247 616.821 491.181 616.761 491.13 616.69C491.068 616.617 491.023 616.532 490.997 616.441C490.971 616.349 490.964 616.253 490.977 616.159C490.99 616.065 491.023 615.974 491.074 615.893C491.124 615.813 491.191 615.743 491.27 615.69L491.4 615.62C491.48 615.585 491.566 615.567 491.653 615.566C491.74 615.565 491.827 615.581 491.908 615.614C491.988 615.646 492.062 615.694 492.124 615.756C492.186 615.817 492.236 615.89 492.27 615.97C492.321 616.083 492.338 616.208 492.32 616.33" fill="white"/>
<path d="M494.359 608.94C494.495 608.87 494.647 608.838 494.8 608.847C494.953 608.856 495.1 608.906 495.226 608.992C495.353 609.078 495.454 609.196 495.519 609.335C495.584 609.473 495.61 609.626 495.595 609.779C495.58 609.931 495.524 610.076 495.434 610.199C495.343 610.322 495.221 610.419 495.08 610.478C494.939 610.538 494.785 610.558 494.633 610.537C494.482 610.516 494.339 610.455 494.219 610.36C494.044 610.217 493.933 610.011 493.908 609.786C493.884 609.562 493.949 609.337 494.089 609.16C494.162 609.068 494.254 608.993 494.359 608.94" fill="white"/>
<path d="M495.63 623C495.609 623.142 495.552 623.276 495.464 623.39C495.377 623.504 495.262 623.594 495.131 623.652C494.999 623.71 494.855 623.733 494.712 623.72C494.569 623.707 494.432 623.658 494.313 623.577C494.194 623.497 494.097 623.387 494.032 623.259C493.967 623.132 493.935 622.989 493.94 622.846C493.945 622.702 493.986 622.562 494.059 622.439C494.133 622.315 494.236 622.213 494.36 622.14C494.558 622.028 494.792 621.999 495.011 622.059C495.23 622.119 495.417 622.263 495.53 622.46C495.618 622.625 495.653 622.814 495.63 623" fill="white"/>
<path d="M496.45 616.61C496.41 616.74 496.345 616.861 496.257 616.965C496.169 617.069 496.061 617.154 495.94 617.215C495.818 617.276 495.685 617.311 495.549 617.319C495.413 617.327 495.277 617.307 495.15 617.26C495.018 617.212 494.896 617.141 494.79 617.05C494.663 616.926 494.572 616.772 494.525 616.601C494.477 616.431 494.476 616.251 494.521 616.08C494.566 615.909 494.656 615.753 494.781 615.628C494.905 615.503 495.061 615.413 495.232 615.368C495.403 615.323 495.583 615.323 495.753 615.37C495.924 615.417 496.079 615.508 496.202 615.634C496.326 615.761 496.414 615.917 496.458 616.089C496.501 616.26 496.498 616.44 496.45 616.61" fill="white"/>
<path d="M497.829 612C497.883 611.708 498.035 611.444 498.261 611.253C498.488 611.061 498.773 610.954 499.069 610.95C499.376 610.984 499.661 611.122 499.879 611.34C500.098 611.558 500.235 611.844 500.269 612.15C500.26 612.469 500.132 612.773 499.91 613.003C499.688 613.232 499.388 613.37 499.069 613.39C498.753 613.404 498.443 613.291 498.209 613.078C497.975 612.864 497.835 612.567 497.819 612.25C497.809 612.167 497.809 612.083 497.819 612" fill="white"/>
<path d="M498.89 619.19C499.18 619.148 499.476 619.213 499.723 619.373C499.97 619.532 500.151 619.775 500.233 620.057C500.315 620.339 500.293 620.642 500.17 620.908C500.047 621.175 499.832 621.389 499.564 621.51C499.296 621.631 498.994 621.651 498.712 621.567C498.431 621.482 498.189 621.299 498.032 621.051C497.874 620.803 497.812 620.507 497.855 620.216C497.899 619.926 498.046 619.661 498.27 619.47C498.447 619.322 498.661 619.225 498.89 619.19Z" fill="white"/>
<path d="M499.31 629.42C499.226 629.469 499.132 629.5 499.036 629.512C498.939 629.524 498.841 629.516 498.748 629.489C498.654 629.462 498.567 629.416 498.492 629.354C498.417 629.293 498.355 629.216 498.31 629.13C498.259 629.027 498.228 628.915 498.22 628.8C498.34 628.45 498.62 628.1 499.03 628.19C499.165 628.21 499.292 628.271 499.391 628.365C499.491 628.458 499.56 628.58 499.588 628.715C499.617 628.849 499.603 628.988 499.55 629.114C499.496 629.24 499.406 629.347 499.29 629.42" fill="white"/>
<path d="M501.879 625.56C501.879 625.825 501.774 626.079 501.586 626.267C501.399 626.455 501.144 626.56 500.879 626.56H500.759C500.626 626.554 500.495 626.521 500.375 626.463C500.255 626.406 500.147 626.325 500.059 626.225C499.97 626.125 499.903 626.009 499.86 625.883C499.817 625.756 499.8 625.623 499.809 625.49C499.818 625.294 499.885 625.105 500.001 624.947C500.116 624.789 500.276 624.668 500.459 624.6C500.582 624.542 500.715 624.511 500.851 624.506C500.987 624.502 501.122 624.525 501.248 624.575C501.374 624.625 501.489 624.699 501.586 624.795C501.682 624.89 501.758 625.004 501.809 625.13C501.871 625.265 501.901 625.412 501.899 625.56" fill="white"/>
<path d="M503.41 622.45C502.882 622.395 502.396 622.14 502.051 621.736C501.707 621.333 501.53 620.813 501.557 620.284C501.585 619.754 501.815 619.255 502.2 618.89C502.584 618.525 503.094 618.321 503.625 618.321C504.155 618.321 504.665 618.525 505.05 618.89C505.434 619.255 505.664 619.754 505.692 620.284C505.719 620.813 505.543 621.333 505.198 621.736C504.853 622.14 504.367 622.395 503.84 622.45C503.697 622.47 503.552 622.47 503.41 622.45" fill="white"/>
<path d="M506.889 629.87C506.807 629.988 506.699 630.086 506.575 630.159C506.451 630.231 506.312 630.276 506.169 630.29C505.944 630.301 505.723 630.221 505.557 630.069C505.39 629.917 505.29 629.705 505.279 629.48C505.269 629.255 505.348 629.034 505.5 628.867C505.652 628.7 505.864 628.601 506.089 628.59C506.25 628.581 506.41 628.62 506.549 628.7C506.674 628.781 506.779 628.888 506.856 629.014C506.934 629.141 506.983 629.283 506.999 629.43C506.999 629.58 506.919 629.72 506.889 629.87" fill="white"/>
<path d="M505.46 625.52C505.234 625.372 505.065 625.153 504.98 624.897C504.894 624.641 504.898 624.364 504.989 624.11C505.08 623.856 505.254 623.641 505.483 623.498C505.712 623.356 505.982 623.294 506.25 623.324C506.519 623.354 506.769 623.473 506.961 623.662C507.153 623.852 507.275 624.1 507.309 624.368C507.342 624.636 507.284 624.907 507.145 625.137C507.005 625.368 506.792 625.545 506.54 625.64C506.363 625.706 506.173 625.729 505.986 625.708C505.798 625.687 505.618 625.623 505.46 625.52" fill="white"/>
<path d="M508.27 622.45C507.758 622.402 507.284 622.159 506.946 621.771C506.608 621.383 506.433 620.88 506.457 620.366C506.481 619.852 506.702 619.367 507.074 619.012C507.446 618.657 507.941 618.458 508.455 618.458C508.969 618.458 509.464 618.657 509.836 619.012C510.208 619.367 510.429 619.852 510.453 620.366C510.477 620.88 510.302 621.383 509.964 621.771C509.626 622.159 509.152 622.402 508.64 622.45C508.517 622.46 508.393 622.46 508.27 622.45Z" fill="white"/>
<path d="M512.59 625.55C512.579 625.792 512.482 626.021 512.315 626.197C512.148 626.372 511.923 626.48 511.682 626.503C511.442 626.525 511.201 626.459 511.005 626.317C510.809 626.175 510.671 625.967 510.616 625.732C510.562 625.496 510.595 625.249 510.709 625.035C510.823 624.822 511.011 624.657 511.237 624.572C511.463 624.486 511.713 624.485 511.939 624.57C512.166 624.654 512.355 624.818 512.47 625.03C512.556 625.189 512.598 625.369 512.59 625.55Z" fill="white"/>
<path d="M514.14 628.91C514.11 629.088 514.012 629.246 513.866 629.351C513.719 629.456 513.537 629.499 513.36 629.47C513.269 629.454 513.183 629.42 513.106 629.37C513.028 629.321 512.962 629.256 512.91 629.18C512.862 629.097 512.83 629.005 512.818 628.909C512.805 628.814 512.812 628.717 512.837 628.624C512.862 628.531 512.905 628.444 512.964 628.368C513.023 628.292 513.096 628.228 513.18 628.18C513.26 628.141 513.344 628.111 513.43 628.09C513.82 628.17 514.22 628.46 514.14 628.9" fill="white"/>
<path d="M514.55 620.39C514.55 620.549 514.519 620.706 514.458 620.853C514.397 621 514.308 621.133 514.195 621.246C514.083 621.358 513.95 621.447 513.803 621.508C513.656 621.569 513.499 621.6 513.34 621.6C513.181 621.6 513.024 621.569 512.877 621.508C512.73 621.447 512.597 621.358 512.484 621.246C512.372 621.133 512.283 621 512.222 620.853C512.161 620.706 512.13 620.549 512.13 620.39C512.138 620.108 512.244 619.837 512.431 619.625C512.617 619.413 512.872 619.273 513.151 619.229C513.43 619.185 513.716 619.24 513.958 619.385C514.201 619.529 514.386 619.754 514.48 620.02C514.523 620.156 514.547 620.298 514.55 620.44" fill="white"/>
<path d="M515.839 616.4C515.83 616.248 515.85 616.095 515.9 615.95C515.95 615.806 516.027 615.673 516.129 615.559C516.23 615.444 516.353 615.351 516.49 615.284C516.628 615.218 516.777 615.179 516.929 615.17C517.198 615.194 517.449 615.317 517.633 615.514C517.818 615.712 517.923 615.97 517.929 616.24C517.937 616.419 517.897 616.597 517.812 616.755C517.728 616.914 517.602 617.046 517.449 617.139C517.295 617.233 517.12 617.283 516.94 617.284C516.761 617.286 516.584 617.24 516.429 617.15C516.152 616.978 515.946 616.711 515.849 616.4" fill="white"/>
<path d="M518.25 623.39C518.1 623.558 517.889 623.66 517.664 623.674C517.439 623.687 517.218 623.61 517.05 623.46C516.916 623.341 516.823 623.182 516.785 623.006C516.747 622.831 516.765 622.648 516.837 622.484C516.909 622.32 517.032 622.183 517.187 622.092C517.342 622.002 517.521 621.962 517.7 621.98C517.843 621.998 517.98 622.046 518.103 622.122C518.225 622.198 518.33 622.3 518.41 622.42C518.41 622.75 518.52 623.14 518.25 623.42" fill="white"/>
<path d="M520.67 616.88C520.02 616.94 519.81 615.95 520.35 615.66C520.422 615.612 520.504 615.579 520.589 615.564C520.675 615.548 520.762 615.549 520.847 615.568C520.932 615.587 521.012 615.622 521.083 615.672C521.154 615.722 521.214 615.786 521.26 615.86C521.284 615.894 521.304 615.931 521.32 615.97C521.366 616.073 521.383 616.187 521.372 616.299C521.36 616.411 521.32 616.518 521.254 616.61C521.189 616.702 521.1 616.775 520.998 616.822C520.895 616.87 520.782 616.89 520.67 616.88" fill="white"/>
<path d="M817.93 516C818.23 514 816.7 512.93 814.62 512.21L815.3 509.5L813.65 509.09L812.99 511.73L811.67 511.42L812.33 508.76L810.69 508.35L810.01 511.06L809.01 510.81L806.73 510.24L806.3 512C806.3 512 807.52 512.29 807.5 512.3C807.616 512.315 807.728 512.353 807.829 512.411C807.93 512.469 808.019 512.547 808.089 512.641C808.16 512.734 808.212 512.84 808.241 512.953C808.27 513.066 808.277 513.184 808.26 513.3L807.49 516.39H807.67H807.49L806.41 520.71C806.387 520.786 806.349 520.856 806.299 520.917C806.249 520.978 806.187 521.029 806.118 521.066C806.048 521.103 805.972 521.126 805.893 521.134C805.814 521.141 805.735 521.133 805.66 521.11V521.11L804.46 520.81L803.64 522.69L805.79 523.23L806.96 523.53L806.28 526.27L807.93 526.68L808.6 523.97L809.92 524.31L809.24 527.01L810.89 527.42L811.57 524.69C814.38 525.22 816.5 525 817.39 522.46C817.735 521.776 817.796 520.982 817.558 520.253C817.32 519.524 816.803 518.919 816.12 518.57L815.87 518.46C816.437 518.344 816.951 518.044 817.331 517.607C817.71 517.169 817.935 516.618 817.97 516.04L817.93 516ZM814.21 521.32C813.7 523.37 810.21 522.26 809.13 521.99L810.03 518.36C811.15 518.63 814.73 519.19 814.2 521.36L814.21 521.32ZM814.71 516.05C814.25 517.91 811.38 516.97 810.45 516.74L811.27 513.44C812.2 513.67 815.2 514.11 814.71 516.05" fill="white"/>
<path d="M481.4 496.23C481.061 496.81 480.799 497.432 480.62 498.08C480.576 497.397 480.284 496.754 479.8 496.27C479.316 495.786 478.673 495.495 477.99 495.45C478.628 495.259 479.237 494.984 479.8 494.63C480.152 494.065 480.428 493.457 480.62 492.82C480.804 493.463 481.073 494.079 481.42 494.65C481.991 495 482.606 495.269 483.25 495.45C482.604 495.628 481.984 495.894 481.41 496.24" fill="white"/>
<path d="M856.4 382.23C856.061 382.81 855.799 383.432 855.62 384.08C855.576 383.397 855.284 382.754 854.8 382.27C854.316 381.786 853.673 381.495 852.99 381.45C853.628 381.259 854.237 380.984 854.8 380.63C855.152 380.065 855.428 379.457 855.62 378.82C855.804 379.463 856.073 380.079 856.42 380.65C856.991 381 857.606 381.269 858.25 381.45C857.604 381.628 856.984 381.894 856.41 382.24" fill="white"/>
<path d="M288.4 741.23C288.061 741.81 287.799 742.432 287.62 743.08C287.576 742.397 287.284 741.754 286.8 741.27C286.316 740.786 285.673 740.495 284.99 740.45C285.628 740.259 286.237 739.984 286.8 739.63C287.152 739.065 287.428 738.457 287.62 737.82C287.804 738.463 288.073 739.079 288.42 739.65C288.991 740 289.606 740.269 290.25 740.45C289.604 740.628 288.984 740.894 288.41 741.24" fill="white"/>
<path d="M681.77 665.92C681.433 666.497 681.171 667.116 680.99 667.76C680.799 667.124 680.527 666.516 680.18 665.95C679.612 665.601 679 665.329 678.36 665.14C678.997 664.942 679.605 664.663 680.17 664.31C680.522 663.749 680.798 663.144 680.99 662.51C681.18 663.151 681.449 663.766 681.79 664.34C682.363 664.691 682.983 664.961 683.63 665.14C682.982 665.318 682.361 665.581 681.78 665.92" fill="white"/>
<path d="M834.1 739.49C833.39 740.21 832.43 743.49 832.43 743.49C832.43 743.49 831.43 740.33 830.68 739.61C829.93 738.89 826.8 737.86 826.8 737.86C826.8 737.86 829.95 736.86 830.67 736.1C831.39 735.34 832.43 732.23 832.43 732.23C832.43 732.23 833.43 735.43 834.13 736.16C834.83 736.89 838.06 737.86 838.06 737.86C838.06 737.86 834.83 738.86 834.06 739.53" fill="white"/>
<path d="M105.32 759.85C104.917 761.158 104.62 762.495 104.43 763.85C104.229 762.534 103.921 761.236 103.51 759.97C102.931 759.275 102.237 758.683 101.46 758.22C102.224 757.755 102.901 757.159 103.46 756.46C103.871 755.196 104.182 753.902 104.39 752.59C104.589 753.921 104.89 755.235 105.29 756.52C105.872 757.211 106.577 757.788 107.37 758.22C106.573 758.639 105.864 759.205 105.28 759.89" fill="white"/>
<path d="M651.4 76.2301C651.061 76.8102 650.799 77.4321 650.62 78.0801C650.43 77.4426 650.154 76.8338 649.8 76.2701C649.237 75.9166 648.628 75.6408 647.99 75.4501C648.628 75.2593 649.237 74.9835 649.8 74.6301C650.152 74.0654 650.428 73.4568 650.62 72.8201C650.804 73.4631 651.073 74.0786 651.42 74.6501C651.991 74.9997 652.606 75.2689 653.25 75.4501C652.604 75.6277 651.984 75.8936 651.41 76.2401" fill="white"/>
<path d="M688.29 46.1201C687.57 46.8401 686.62 50.1201 686.62 50.1201C686.62 50.1201 685.62 46.9701 684.87 46.2501C684.12 45.5301 681 44.4501 681 44.4501C681 44.4501 684.15 43.4501 684.87 42.6901C685.59 41.9301 686.63 38.8201 686.63 38.8201C686.63 38.8201 687.63 42.0201 688.33 42.7501C689.03 43.4801 692.26 44.4501 692.26 44.4501C692.26 44.4501 689.03 45.4501 688.26 46.1201" fill="white"/>
</g>
<defs>
<linearGradient id="paint0_linear_1247_1691" x1="451.122" y1="88.1284" x2="498.854" y2="831.51" gradientUnits="userSpaceOnUse">
<stop stop-color="#0F335B"/>
<stop offset="1" stop-color="#044E97"/>
</linearGradient>
<clipPath id="clip0_1247_1691">
<rect width="885.69" height="796.68" fill="white"/>
</clipPath>
</defs>
</svg>
