<svg id="Capa_1" data-name="Capa 1" xmlns="http://www.w3.org/2000/svg" xmlns:xlink="http://www.w3.org/1999/xlink" viewBox="0 0 286.8 548.03"><defs><style>.cls-1{fill:none;}.cls-2{clip-path:url(#clip-path);}.cls-3{fill:url(#Degradado_sin_nombre_2);}.cls-4{clip-path:url(#clip-path-2);}.cls-5{fill:#fff;}.cls-6{clip-path:url(#clip-path-3);}.cls-7{clip-path:url(#clip-path-4);}.cls-8{clip-path:url(#clip-path-5);}.cls-9{clip-path:url(#clip-path-6);}.cls-10{clip-path:url(#clip-path-7);}.cls-11{clip-path:url(#clip-path-8);}</style><clipPath id="clip-path"><rect class="cls-1" width="286.8" height="548.03"/></clipPath><linearGradient id="Degradado_sin_nombre_2" x1="-0.38" y1="2019.2" x2="-0.38" y2="2018.2" gradientTransform="matrix(286.8, 0, 0, -548.03, 253.2, 1106575.72)" gradientUnits="userSpaceOnUse"><stop offset="0" stop-color="#02274c"/><stop offset="1" stop-color="#044e97"/></linearGradient><clipPath id="clip-path-2"><rect class="cls-1" x="33" y="406.95" width="5.26" height="5.26"/></clipPath><clipPath id="clip-path-3"><rect class="cls-1" x="17" y="455.95" width="5.26" height="5.26"/></clipPath><clipPath id="clip-path-4"><rect class="cls-1" x="51" y="176.95" width="5.26" height="5.26"/></clipPath><clipPath id="clip-path-5"><rect class="cls-1" x="149" y="99.95" width="5.26" height="5.26"/></clipPath><clipPath id="clip-path-6"><rect class="cls-1" x="127" y="153.95" width="11.26" height="11.26"/></clipPath><clipPath id="clip-path-7"><rect class="cls-1" x="30" y="58.95" width="11.26" height="11.26"/></clipPath><clipPath id="clip-path-8"><rect class="cls-1" x="11" y="344.95" width="23" height="19.46"/></clipPath></defs><g class="cls-2"><g id="Grupo_3128" data-name="Grupo 3128"><path id="Trazado_4814" data-name="Trazado 4814" class="cls-3" d="M189.73,0s91.68,7.43,96.77,89.44-56,87.11-96.77,90.93S52.21,186.74,42,272.05s84,109.78,80.22,170.77S99.32,536.22,0,548V0Z"/></g></g><g id="Grupo_3137" data-name="Grupo 3137"><g class="cls-4"><g id="Grupo_3131" data-name="Grupo 3131"><path id="Trazado_4815" data-name="Trazado 4815" class="cls-5" d="M36.41,410.37a7.13,7.13,0,0,0-.78,1.84,7.57,7.57,0,0,0-.82-1.81,7.4,7.4,0,0,0-1.81-.82,7.57,7.57,0,0,0,1.81-.82,7.79,7.79,0,0,0,.82-1.81,7.33,7.33,0,0,0,.8,1.84,8.07,8.07,0,0,0,1.83.8,7,7,0,0,0-1.85.78"/></g></g></g><g id="Grupo_3140" data-name="Grupo 3140"><g class="cls-6"><g id="Grupo_3131-2" data-name="Grupo 3131-2"><path id="Trazado_4815-2" data-name="Trazado 4815-2" class="cls-5" d="M20.41,459.37a7.13,7.13,0,0,0-.78,1.84,7.57,7.57,0,0,0-.82-1.81,7.4,7.4,0,0,0-1.81-.82,7.57,7.57,0,0,0,1.81-.82,7.79,7.79,0,0,0,.82-1.81,7.33,7.33,0,0,0,.8,1.84,8.07,8.07,0,0,0,1.83.8,7,7,0,0,0-1.85.78"/></g></g></g><g id="Grupo_3138" data-name="Grupo 3138"><g class="cls-7"><g id="Grupo_3131-3" data-name="Grupo 3131-3"><path id="Trazado_4815-3" data-name="Trazado 4815-3" class="cls-5" d="M54.41,180.37a7.13,7.13,0,0,0-.78,1.84,7.57,7.57,0,0,0-.82-1.81,7.4,7.4,0,0,0-1.81-.82,7.57,7.57,0,0,0,1.81-.82,7.79,7.79,0,0,0,.82-1.81,7.33,7.33,0,0,0,.8,1.84,8.07,8.07,0,0,0,1.83.8,7,7,0,0,0-1.85.78"/></g></g></g><g id="Grupo_3139" data-name="Grupo 3139"><g class="cls-8"><g id="Grupo_3131-4" data-name="Grupo 3131-4"><path id="Trazado_4815-4" data-name="Trazado 4815-4" class="cls-5" d="M152.41,103.37a7.13,7.13,0,0,0-.78,1.84,7.57,7.57,0,0,0-.82-1.81,7.4,7.4,0,0,0-1.81-.82,7.57,7.57,0,0,0,1.81-.82,7.79,7.79,0,0,0,.82-1.81,7.33,7.33,0,0,0,.8,1.84,8.07,8.07,0,0,0,1.83.8,7,7,0,0,0-1.85.78"/></g></g></g><g id="Grupo_3135" data-name="Grupo 3135"><g class="cls-9"><g id="Grupo_3131-5" data-name="Grupo 3131-5"><path id="Trazado_4815-5" data-name="Trazado 4815-5" class="cls-5" d="M134.3,161.25c-.72.72-1.68,4-1.68,4s-1-3.16-1.74-3.88-3.88-1.75-3.88-1.75,3.15-1,3.87-1.76,1.76-3.87,1.76-3.87,1,3.2,1.7,3.93,3.92,1.7,3.92,1.7-3.23,1-3.95,1.67"/></g></g></g><g id="Grupo_3133" data-name="Grupo 3133"><g class="cls-10"><g id="Grupo_3131-8" data-name="Grupo 3131-8"><path id="Trazado_4815-8" data-name="Trazado 4815-8" class="cls-5" d="M37.3,66.25c-.72.72-1.68,4-1.68,4s-1-3.16-1.74-3.88S30,64.58,30,64.58s3.15-1,3.87-1.76S35.63,59,35.63,59s1,3.2,1.7,3.93,3.92,1.7,3.92,1.7-3.23,1-4,1.67"/></g></g></g><g id="Grupo_3283" data-name="Grupo 3283"><g class="cls-11"><g id="Grupo_3282" data-name="Grupo 3282"><path id="Trazado_5041" data-name="Trazado 5041" class="cls-5" d="M14.26,359.87,11,361.53v2l3.24-1.65L17,360.46l13.38-6.82a7.31,7.31,0,0,1,.07,1.05,8,8,0,0,1-8,8,8.15,8.15,0,0,1-3.89-1l-.1.05-1.72.88a9.74,9.74,0,0,0,15.45-7.87q0-.37,0-.75a1.78,1.78,0,0,1,1-1.71l.84-.43v-2l-18.16,9.24Z"/><path id="Trazado_5042" data-name="Trazado 5042" class="cls-5" d="M28,348.91l-13.37,6.81a8.93,8.93,0,0,1-.07-1,8,8,0,0,1,11.85-6.94l1.59-.81.24-.12a9.73,9.73,0,0,0-15.45,7.87h0c0,.25,0,.5,0,.74a1.78,1.78,0,0,1-1,1.71l-.84.43v2l2.46-1.25.8-.41.79-.4,14.1-7.18,1.58-.81L34,347.83v-2l-3.25,1.66Z"/></g></g></g></svg>