<?xml version="1.0" encoding="utf-8"?>
<!-- Generator: Adobe Illustrator 26.1.0, SVG Export Plug-In . SVG Version: 6.00 Build 0)  -->
<svg version="1.1" id="Capa_1" xmlns="http://www.w3.org/2000/svg" xmlns:xlink="http://www.w3.org/1999/xlink" x="0px" y="0px"
	 viewBox="0 0 692 692" style="enable-background:new 0 0 692 692;" xml:space="preserve">
<path style="fill:#4B7198;" d="M600,297.3c-18.1-28-42.1-61.2-43.9-96.2H549c0.4,7.8,1.8,15.7,4.1,23.2c6,20.4,16.9,39,28,56.9
	c11.8,18.9,24.2,37.3,36.2,56.1c22.8,35.7,43.8,73,53.6,114.5c9,38.1,7.8,79-11,114c-17.7,33.1-48.2,58.7-83.6,71.3
	c-38.5,13.7-81.4,12.7-119.8-0.9c-33.4-11.9-63-33.8-85.3-61.2c-22.7-27.8-37.9-62-42.2-97.6c-4.7-37.9,1.1-75.9,7-113.3
	c5.8-36.4,12.1-73.3,9.1-110.4c-2.8-35.7-15.3-69.2-38.1-97c-22.7-27.6-54-48.2-88.7-56.8c-36.3-9-75.3-4.9-109.4,10.2
	c-32.2,14.1-61.1,39.3-74.9,72.3c-6.4,15.6-9,32.7-5.7,49.3c3.2,15.7,11.3,29.8,21.2,42.3c21.5,27.3,51.5,48.3,67.1,80.1
	c3.2,6.5,5.4,13.2,6.7,20.1h2.7c-0.7-3.8-1.7-7.6-3-11.3c-5.3-15.2-15-28.6-25.4-40.8c-22.2-25.5-52.4-47.9-63.7-81
	c-12.1-35.7,5.3-72.5,31-97.3c28-27.1,66.9-42.6,105.6-44.5c38.1-1.9,75.4,10,105.5,33.4c28.6,22.3,50.1,53.7,59,89.1
	c9.2,36.5,5.7,74.7,0.2,111.6c-5.6,36.9-13.3,73.8-14,111.3c-0.6,35.9,6.5,70.7,23.6,102.5c34.6,64.2,102.8,107.6,176.4,106.5
	c38.6-0.5,76.3-13.2,106.2-37.8c28.2-23.2,48-55.9,53.8-92.1C695.1,439.3,643.6,364.5,600,297.3z"/>
<path style="fill:#7898B8;" d="M671.6,451.5c-10-42.4-31.8-80.3-53.7-114.7c-5.2-8.2-10.4-16.3-15.6-24.2
	c-6.8-10.4-13.9-21.2-20.6-32c-10.8-17.4-21.8-36.1-27.9-56.7c-2.3-7.7-3.6-15.4-4-22.8h-1.1c0.4,7.6,1.8,15.4,4.1,23.3
	c6.1,20.8,17.3,39.6,28.1,57.1c6.7,10.8,13.8,21.5,20.6,32c5.2,7.9,10.4,16,15.6,24.1c21.9,34.3,43.5,72,53.5,114.2
	c4.7,20,6.3,39.4,4.9,57.9c-1.7,20.3-6.9,38.9-15.8,55.5c-17.4,32.5-47.6,58.2-83.1,70.8c-18.8,6.7-39,9.9-59.7,9.7
	c-20.4-0.2-40.3-3.8-59.6-10.7c-32.5-11.6-61.9-32.7-84.9-61c-11.3-14-20.7-29.3-27.8-45.7c-7.2-16.8-12-34-14.2-51.6
	c-4.8-38.3,1.6-78,7-113l0.8-5.4c5.5-34.4,11.1-69.9,8.3-105.2c-2.9-36.8-16.1-70.4-38.3-97.4c-23.3-28.3-54.9-48.6-89.2-57.1
	c-36-8.8-75.1-5.2-109.9,10.3c-35.2,15.7-62.6,42.3-75.3,73c-6.9,16.8-8.9,33.9-5.7,49.7c2.8,14.1,9.8,28,21.3,42.6
	c8.1,10,17.3,19.4,26.3,28.5c15.2,15.4,30.9,31.4,40.8,51.3c3.1,6.3,5.3,13,6.7,19.9h1c-1.4-7-3.6-13.8-6.8-20.2
	c-9.8-20.2-25.8-36.2-41.1-51.7c-8.9-9-18.1-18.4-26.1-28.4c-11.4-14.4-18.2-28.1-21-42c-3.2-15.4-1.2-32.4,5.6-48.8
	c12.5-30.4,39.7-56.7,74.5-72.2c34.6-15.4,73.2-19,108.9-10.2c33.9,8.4,65.4,28.4,88.3,56.6c21.9,26.7,35.1,60.1,38,96.5
	c2.8,35.1-2.9,70.5-8.3,104.8l-0.8,5.4c-5.5,35.2-11.8,75-7,113.5c2.2,17.7,6.9,35.2,14.3,52c7.1,16.5,16.5,32.1,28,46.1
	c23.3,28.5,52.9,49.7,85.6,61.4c19.3,6.9,39.6,10.5,60.1,10.8c20.9,0.2,41.2-3.1,60.2-9.8c35.8-12.7,66.4-38.9,84-71.7
	c9-16.8,14.3-35.7,15.9-56.2C678,491.2,676.4,471.6,671.6,451.5z"/>
<path style="fill:#7898B8;" d="M665.2,408.5c-15.3-36.4-37.4-70.3-58.7-103.2c-1.9-2.8-3.7-5.6-5.5-8.4c-1.8-2.6-3.4-5.2-5.3-8
	c-10.2-15.7-21.9-33.5-29.6-51.8c-5.4-12.8-8.3-24.7-8.9-36h-1.8c0.6,11.5,3.6,23.5,9,36.5c7.7,18.4,19.3,36.3,29.7,52
	c1.8,2.7,3.5,5.4,5.2,8c1.9,2.8,3.6,5.6,5.5,8.4c21.3,32.8,43.3,66.7,58.6,102.9c17.4,41.2,23,78.6,17.2,114.7
	c-2.9,17.7-9,34.8-18.4,50.6c-9.2,15.6-21,29.4-35.2,41c-28.9,23.8-66.4,37.1-105.7,37.6c-35.6,0.4-71-9.5-102.4-28.8
	c-30.8-18.9-56.2-45.7-73.3-77.5c-16.2-30.2-24.2-64.5-23.5-102.1c0.6-28.5,5.3-57.1,9.8-84.8c1.4-8.7,2.9-17.6,4.2-26.4
	c5.5-36.2,9.2-74.8-0.2-111.9c-8.8-34.9-29.8-66.6-59.2-89.5c-30.2-23.5-67.8-35.4-106-33.5c-12.2,0.6-24.3,2.6-36,5.7
	c-26.6,7.1-51.1,20.7-70.5,39.3c-13.8,13.2-24.1,28.8-29.9,44.9c-6.6,18.1-7,36.6-1.3,53.3c8.3,24.2,26.6,42.8,44.4,60.7
	c6.6,6.6,13.4,13.5,19.5,20.6c12.8,14.7,20.8,27.5,25.3,40.4c1.2,3.5,2.2,7.2,2.9,10.9h2.2c-0.7-4-1.8-7.9-3.1-11.6
	c-4.7-13-12.7-26.1-25.7-41c-6.2-7-13-14-19.7-20.7c-17.6-17.8-35.8-36.2-44-60.1c-5.6-16.7-5.2-34.1,1.3-52.2
	c5.7-15.8,15.9-31.2,29.5-44.3c27.1-26.3,65.5-42.4,105.1-44.3c37.9-1.8,75.1,10,105,33.2c29.2,22.5,50,54.1,58.6,88.5
	c9.3,36.9,5.6,75.3,0.2,111.3c-1.3,8.8-2.8,17.7-4.2,26.4c-4.6,27.7-9.3,56.4-9.8,85c-0.7,37.9,7.2,72.4,23.7,102.9
	c17.3,32,42.8,59,73.8,78c31.6,19.4,67.3,29.5,103.2,29c15-0.2,29.9-2.3,44.1-6.1c23.1-6.2,44.5-17.1,62.9-31.6
	c14.3-11.7,26.2-25.7,35.5-41.4c9.5-16,15.7-33.3,18.6-51.2C688.4,487.6,682.7,449.8,665.2,408.5z"/>
</svg>
