<?xml version="1.0" encoding="utf-8"?>
<!-- Generator: Adobe Illustrator 26.1.0, SVG Export Plug-In . SVG Version: 6.00 Build 0)  -->
<svg version="1.1" id="Capa_1" xmlns="http://www.w3.org/2000/svg" xmlns:xlink="http://www.w3.org/1999/xlink" x="0px" y="0px"
	 viewBox="0 0 332 332" style="enable-background:new 0 0 332 332;" xml:space="preserve">
<g id="Capa_2_00000036247669764357482790000010211632443711877525_">
	<g id="color">
		<path style="fill:#FFFFFF;" d="M67.7,133.1c0,0-8.5,4.1-11.5,13.4s0.6,24.5,1,25.2c0.4,0.6,2.3,9.2,6.2,15.2s6.6,11.5,16.2,13.2
			s25.7-0.6,26.3-15.9c0.6-15.3,0.3-16.7-1.4-22.3c-1.7-5.5-5.2-14.8-8.6-19.8c-3.4-5.1-4.7-3.3-4.7-3.3s-3.9-5.4-11.1-7.1
			C73,130,67.7,133.1,67.7,133.1z"/>
		<path style="fill:#024E96;" d="M88.4,210.5c0,0,5.1,4.2,8.1-0.8c0,0,5.2-5.9,8.4-19.5c3.2-13.6,0.5-13.3-2.5-15.9
			c-3-2.6-8-5.2-14.3-5.1c-6.4,0.1-12,3.6-13.8,6.1s-4,4.2-5.9,11.4s4.2,12.5,6.1,14.2C76.4,202.6,80.8,206.8,88.4,210.5z"/>
		<path style="fill:#024E96;" d="M56.1,155.8c0,0-5.8,0.8-11.9-2.4l-3.7-2.6c0,0-0.5,4.4,3.4,8.7s5.1,5,9,6.8s6.2,1,6.4,1
			S59.5,158.9,56.1,155.8z"/>
		<path style="fill:#024E96;" d="M86.9,135.7c0,0,0.4,4.4,5,9.7c0,0,1.5,2.8,2.7,0.5c1.3-2.3,3-4.9,3.5-10.3c0.5-5.4-2.5-10.7-4-13
			s-1.9-3.1-1.9-3.1s-0.4,4.3-1.3,6.7C90.1,128.5,90.1,130.7,86.9,135.7z"/>
		<path style="fill:#929599;" d="M83.4,158.3c0,0.3-0.1,3.2,5.6,6.8s10.6,3.6,12.3,2.9c1.7-0.7,3-1.1,3.8-3.1l-1.6-6
			c-0.4-1.4-1.1-4-2-5.2c-1.4-1.8-3.5-3.1-5.5-3.9c-3.3-1.3-4.2-0.9-4.8-0.7C90.7,149.2,83.4,158.3,83.4,158.3z"/>
		<path style="fill:#676766;" d="M54.6,155.2c0,0-2.2-6.3,1.2-14s9.9-11.2,12.8-11.8s6.1-1.1,11.1,0.6s6.3,4.4,6.3,4.4
			s-3-2.4-7.2-2.8c-4.2-0.4-8.6-0.5-12.6,2.5c-4.1,3-4.9,3.6-7.6,8.2s-3.5,8.2-3.6,9.2S54.6,155.2,54.6,155.2z"/>
		<path style="fill:#C6C9CE;" d="M87.5,138.6c0,0-2.5-2.4-5.4,1.3s-1,16.7,0.3,18.5s3.1,2.8,4.2,3.1c1,0.3,3.7-0.2,4.4-5.8
			c0.7-5.7-0.7-11.4-1.3-13C89.1,141.2,88.2,139.1,87.5,138.6z"/>
		<path style="fill:#F4A36C;" d="M80.6,145.4c0,0-1.5,0.8-1.2,4.3c0.2,3.8,2.3,5.3,3.4,2.4C83.8,149.3,83,144.6,80.6,145.4z"/>
	</g>
	<g id="sombra">
		<path style="fill:#A9C5DB;" d="M91.5,144.9c0,0,4.6-6.5,4.4-12.9c-0.2-6.4-3.7-12.2-3.7-12.2s4.3,5.8,5.1,9.9
			c0.8,4.2,1.2,7,0.1,9.9s-2.4,6.2-3.3,6.9S91.5,144.9,91.5,144.9z"/>
		<path style="fill:#A9C5DB;" d="M40.5,150.7c0,0,1.8,5.8,8,10.2s10.8,4.3,10.8,4.3s-0.1-5.8-3.2-9.4c0,0-4.9,0.4-8.8-1.4
			C44.9,153.4,42.7,152.1,40.5,150.7z"/>
		<path style="fill:#929599;" d="M82.8,139.2c0,0,1.6-1.9,3.4,1.7c1.4,2.7,2.2,5.7,2.2,8.8c0,2,0.2,4.5-0.7,7.7
			c-0.9,3.2-1.5,4.4-2.7,3.6c0,0,1.7,1.5,4.4-0.3s1.8-12.9,1-15.7c-0.9-2.9-1.4-6-3.3-6.7C85.2,137.6,83.5,138.5,82.8,139.2z"/>
		<path style="fill:#3F3F3F;" d="M91.1,150.2c0,0,1.1-0.4,3.7,0.5s4,1.7,5.6,3.4s2.2,2.1,2.8,3.6c0.6,1.5,1.4,4,1.4,4.2
			c0.1,0.2-0.2,2.6-2.2,3.8s-4.7,1.6-8.4,0.3s-7.3-4.3-7.3-4.3s2.3,0.1,3.1-1.8C90.8,158,91.6,152.1,91.1,150.2z"/>
		<path style="fill:#3F3F3F;" d="M59.5,135.7l1.3,2.9c0,0-4,3.6-6,12.9l-0.3,4.3c0,0-1.6-5.7,0.3-12.2
			C56.7,137.2,59.5,135.7,59.5,135.7z"/>
		<path style="fill:#C6C9CE;" d="M72,128.8l1.9,2.5c0,0,3.9-1.4,11.7,2.6c0,0-1.8-3.1-7.9-4.6C77.6,129.3,74.4,128.4,72,128.8z"/>
		<path style="fill:#C6C9CE;" d="M56.1,147.2c0,0,5,26.7,12.6,38.4c0,0-1.9,5.3,0.9,9.7c0,0-3.9-3.2-8.6-13.3s-4.8-14.8-4.8-14.8
			s2.4,0.2,2.9,0c0.5-0.1,0.1-9-3.1-11.5h-1.5C54.6,155.8,55,149,56.1,147.2z"/>
		<path style="fill:#A9C5DB;" d="M93.5,212.4c1.8,0,1.8-2.8,0-2.8C91.7,209.6,91.7,212.4,93.5,212.4z"/>
		<path style="fill:#A9C5DB;" d="M71.8,178.2c-0.5,13.8,8.6,29.1,20.4,33.3c0,0,1.3,2,4.1-1.5c2.8-3.5,7.3-13.1,9.4-23.6
			s-0.1-9.1-2.7-11.7s-6.5-5-12.8-5.3c-6.4-0.3-11,1.8-14.7,4.6L71.8,178.2z"/>
	</g>
	<g id="linea">
		<path d="M86.6,134.4c-2.1-2.1-5.1-3.1-8-3.5c-3-0.4-6.1-0.1-9,0.9c-5.9,2.1-10.5,6.9-13,12.6c-0.7,1.7-1.3,3.5-1.7,5.3
			c-0.2,1-0.4,1.9-0.5,2.9c-0.1,0.9-0.3,1.8-0.1,2.7c0.1,0.4,0.6,0.3,0.7,0c0.2-0.7,0.2-1.5,0.3-2.2c0.1-0.9,0.2-1.7,0.4-2.6
			c0.3-1.6,0.8-3.1,1.3-4.6c1.1-2.9,2.7-5.5,4.8-7.8c4-4.3,9.6-6.8,15.5-6.4c3.3,0.2,6.3,1.4,9.1,3.1c0.1,0.1,0.2,0.1,0.3,0
			S86.7,134.4,86.6,134.4L86.6,134.4L86.6,134.4z"/>
		<path d="M40.4,150.8c1.9,2,4.6,3.4,7.2,4.3c2.7,0.9,5.6,1.5,8.5,1.2c0.5,0,0.5-0.9,0-0.8c-2.7,0.2-5.5-0.3-8.1-1.1
			c-2.6-0.8-5.3-1.9-7.3-3.8c-0.1-0.1-0.2-0.1-0.3,0C40.3,150.6,40.3,150.7,40.4,150.8L40.4,150.8z"/>
		<path d="M56,155.8c1,2.3,2,4.5,2.6,6.9c0.3,1,0.5,2.1,0.6,3.2c0,0.3,0,0.7-0.1,1c-0.1,0.2-0.1,0.3-0.2,0.3c-0.3,0.1-0.3,0.5,0,0.6
			c1.9,0.7,0.8-4,0.7-4.6c-0.4-1.4-0.8-2.9-1.4-4.2c-0.5-1.2-1-2.5-1.8-3.5C56.2,155.2,55.9,155.5,56,155.8L56,155.8z"/>
		<path d="M58.2,167.1c-1.7-0.4-3.3-0.7-4.9-1.3c-1.6-0.6-3.1-1.4-4.6-2.4c-2.8-2-5.2-4.6-6.7-7.7c-0.4-0.8-0.7-1.7-0.9-2.6
			c-0.2-0.8-0.1-1.7-0.3-2.6c-0.1-0.4-0.6-0.3-0.7,0c-0.3,0.7-0.1,1.6,0,2.3c0.1,0.8,0.4,1.7,0.7,2.4c0.7,1.6,1.6,3.1,2.7,4.5
			c2.3,2.8,5.3,5.1,8.6,6.5c1.8,0.8,3.9,1.3,5.9,1.2C58.3,167.5,58.4,167.2,58.2,167.1L58.2,167.1z"/>
		<path d="M56.5,168.5c0.1,1.9,0.7,3.7,1.2,5.5s1.1,3.6,1.8,5.4c1.4,3.6,3.1,7,5.1,10.2c3.9,6.2,8.9,11.7,14.8,16.1
			c1.6,1.2,3.3,2.3,5,3.3s3.6,2.1,5.5,2.6c0.5,0.1,0.8-0.5,0.3-0.8c-1.5-0.9-3.2-1.5-4.7-2.3s-3-1.8-4.5-2.8c-2.9-2-5.6-4.4-8-6.9
			c-5.1-5.3-9.3-11.5-12.2-18.3c-0.9-2-1.6-4-2.3-6.1c-0.6-2-1-4.1-1.7-6.1C56.8,168.2,56.5,168.2,56.5,168.5L56.5,168.5z"/>
		<path d="M102.7,156.5c1.2,3.9,2.3,7.9,2.8,11.9s0.6,8.1,0.4,12.2c-0.5,8.1-2.7,16.1-6.5,23.3c-0.9,1.8-1.9,3.6-3.1,5.2
			c-1,1.4-2.3,2.8-4.2,2.2c-0.7-0.2-0.9,0.8-0.3,1c3.5,1.2,5.6-2.9,7.1-5.4c2.2-3.7,3.9-7.6,5.2-11.7c2.6-8.1,3.5-16.8,2.5-25.2
			c-0.6-4.7-1.6-9.5-3.5-13.8C103,156.1,102.6,156.3,102.7,156.5L102.7,156.5z"/>
		<path d="M41.5,153.1c1.2,2.8,3.4,5.2,5.8,7.2c1.2,1,2.4,1.8,3.8,2.6c1.2,0.7,2.5,1.4,3.9,1.7c0.2,0,0.4-0.3,0.2-0.4
			c-1.2-0.5-2.5-1-3.7-1.6c-1.4-0.7-2.7-1.6-3.9-2.6C45.1,158.1,43.1,155.8,41.5,153.1C41.5,153,41.5,153.1,41.5,153.1L41.5,153.1z"
			/>
		<path d="M68.3,191.9c-0.1-7.1,2.8-14.3,8.7-18.6c5.7-4.2,13.2-4.4,19.7-1.9c1.8,0.7,3.5,1.7,5.1,2.8s2.8,2.5,4.1,3.9
			c0.3,0.3,0.9-0.1,0.7-0.5c-0.9-1.5-2.3-2.7-3.6-3.7c-1.4-1.1-3-2-4.7-2.8c-3.3-1.5-7-2.3-10.6-2.2s-7,1.2-10,3.2
			c-3,2.1-5.5,4.8-7.2,8c-1.9,3.6-2.9,7.7-2.3,11.8C68.2,192,68.3,192,68.3,191.9L68.3,191.9z"/>
		<path d="M80.8,144.3c0.4-1.5,0.8-2.9,1.7-4.2c0.8-1.1,2.2-2.1,3.6-1.8c1.5,0.3,2.4,1.8,2.9,3.1c0.5,1.4,0.9,2.9,1.2,4.4
			c0.6,3.1,0.7,6.2,0.5,9.3c-0.1,1.4-0.2,2.9-0.9,4.2c-0.6,1.1-1.9,2.1-3.3,2c-1.5-0.2-2.9-1.4-3.6-2.7c-0.8-1.2-1.2-2.7-1.4-4.1
			c-0.1-0.5-0.8-0.3-0.7,0.2c0.5,2.9,1.8,5.9,4.7,7.1c1.4,0.6,2.9,0.1,4-0.9s1.5-2.5,1.8-4c0.6-3.6,0.5-7.2-0.1-10.7
			c-0.3-1.8-0.8-3.5-1.5-5.2c-0.6-1.4-1.6-2.7-3-3.2c-1.5-0.6-3.2,0.2-4.2,1.3c-1.2,1.4-1.8,3.3-1.9,5.1
			C80.6,144.4,80.8,144.4,80.8,144.3L80.8,144.3z"/>
		<path d="M82.6,146.3c-0.4-1.4-2-1.7-2.9-0.5c-0.8,1-1,2.7-1,4s0.5,3,1.5,3.8s2.1,0.2,2.6-0.8c0.8-1.6,1-3.8,0.4-5.6
			c-0.1-0.3-0.6-0.3-0.6,0.1c0,1.6,0.3,3-0.2,4.5c-0.2,0.5-0.5,1.4-1.2,1.4c-0.6,0-1-0.7-1.2-1.2c-0.7-1.3-0.7-2.7-0.4-4
			c0.1-0.6,0.3-1.2,0.6-1.7c0.2-0.3,0.5-0.5,0.8-0.6c0.5-0.1,0.9,0.3,1.2,0.7C82.4,146.6,82.7,146.5,82.6,146.3L82.6,146.3z"/>
		<path d="M85.5,139.9c1.8,2.9,2.5,6.4,2.7,9.7c0.1,1.8,0.1,3.6-0.2,5.3c-0.1,0.8-0.3,1.6-0.5,2.4c-0.1,0.4-0.2,0.8-0.4,1.2
			c-0.1,0.4-0.3,0.7-0.4,1.1c0,0.2,0.3,0.5,0.5,0.3c0.4-0.4,0.5-1,0.6-1.6c0.2-0.7,0.3-1.3,0.4-2c0.2-1.4,0.4-2.7,0.4-4.1
			c0.1-2.9-0.3-5.8-1.1-8.5c-0.4-1.4-1-2.7-1.9-3.9C85.6,139.7,85.4,139.8,85.5,139.9L85.5,139.9z"/>
		<path d="M87.6,162.4c2.6,2.5,6.2,4.2,9.8,4.6c1.4,0.2,2.9,0.1,4.2-0.5c1.1-0.5,2.5-1.7,2.5-3c0-0.3-0.3-0.3-0.4-0.1
			c-0.4,0.5-0.6,1.2-1.1,1.7s-1,0.8-1.7,1.1c-1.3,0.5-2.7,0.5-4.1,0.3c-3.4-0.5-6.4-2.2-9.1-4.2C87.7,162.2,87.6,162.4,87.6,162.4
			L87.6,162.4z"/>
		<path d="M91.4,150.2c2.8,0.4,5.4,1.2,7.5,3c0.9,0.8,1.8,1.6,2.6,2.6c0.9,1,1.5,2.2,2,3.5c0.1,0.1,0.2,0.2,0.3,0.1
			c0.1,0,0.2-0.2,0.2-0.3c-0.5-2.6-2.7-4.7-4.7-6.3c-2.2-1.7-5-3-7.9-2.8C91.4,150,91.3,150.1,91.4,150.2L91.4,150.2z"/>
		<path d="M91.8,119.7c-0.5,2.8-0.9,5.6-1.8,8.3c-0.4,1.4-1,2.8-1.6,4.1c-0.3,0.6-0.6,1.2-0.9,1.8s-0.8,1.1-1,1.8
			c-0.1,0.3,0.2,0.5,0.5,0.4c0.5-0.4,0.8-1,1.1-1.6c0.4-0.6,0.7-1.3,1-2c0.6-1.4,1.2-2.7,1.6-4.2c0.9-2.8,1.5-5.8,1.4-8.7
			C92.2,119.6,91.9,119.5,91.8,119.7L91.8,119.7z"/>
		<path d="M86.5,136c0.1,0.3,0.2,0.6,0.3,1c0.1,0.3,0.2,0.5,0.5,0.7c0.1,0.1,0.2,0,0.3-0.1v-0.1c-0.2-0.5-0.4-1-0.6-1.6
			c0-0.1-0.2-0.2-0.3-0.2C86.5,135.8,86.5,135.9,86.5,136L86.5,136z"/>
		<path d="M91.1,144.7c0.6,0.9,1.9,3,3.2,2c0.1-0.1,0.1-0.2,0-0.2h-0.1c-1.2,0.1-2-1.1-2.6-2C91.4,144.2,90.9,144.4,91.1,144.7z"/>
		<path d="M94.3,146.6c0.6-0.8,1.1-1.8,1.6-2.7c0.4-0.8,0.8-1.5,1.1-2.3c0.6-1.4,1-2.9,1.2-4.4c0.5-3.9-0.3-7.7-2-11.2
			c-1.1-2.2-2.4-4.3-3.8-6.4c-0.2-0.4-0.8,0-0.6,0.3c1.1,1.7,2.3,3.5,3.3,5.3s1.7,3.8,2.1,5.8c0.8,3.3,0.5,6.7-0.6,9.8
			c-0.3,0.9-0.7,1.7-1.1,2.5c-0.5,1-1.1,2-1.6,3c0,0.1,0,0.2,0.1,0.2C94.1,146.7,94.2,146.7,94.3,146.6L94.3,146.6L94.3,146.6z"/>
		<path d="M92,144.2c2-2.9,3.5-6.4,4-9.9c0.4-3-0.1-6-1.1-8.9c-0.7-2-1.5-3.9-2.5-5.8c-0.1-0.2-0.4,0-0.3,0.2
			c1.3,3.1,2.8,6.2,3.4,9.5c0.5,3,0.1,5.9-0.8,8.8C93.9,140.2,92.9,142.2,92,144.2C91.9,144.2,91.9,144.2,92,144.2L92,144.2
			L92,144.2L92,144.2z"/>
		<path d="M96.8,143.7c0.9,2.1,2.1,4.1,3,6.2c1,2.1,1.8,4.3,2.7,6.5c0.1,0.3,0.6,0.2,0.5-0.1c-0.7-2.2-1.7-4.3-2.6-6.4
			c-1-2.1-1.9-4.4-3.3-6.3c-0.1-0.1-0.2-0.1-0.3-0.1C96.7,143.5,96.7,143.6,96.8,143.7L96.8,143.7z"/>
		<path d="M85.3,162.5c0.5,0.8,1.5,1.4,2.3,2c0.9,0.6,1.8,1.2,2.8,1.7c1.9,0.9,3.8,1.6,5.8,2c1.8,0.4,3.7,0.5,5.5-0.1
			c1.4-0.5,2.8-1.4,3.4-2.7v-0.1H105c-0.9,1.4-2.2,2.3-3.8,2.7c-1.8,0.4-3.7,0.3-5.5-0.2s-3.6-1.2-5.2-2.1c-0.8-0.4-1.7-0.9-2.5-1.4
			c-0.8-0.6-1.6-1.4-2.5-1.9c-0.1,0-0.1,0-0.2,0C85.2,162.4,85.2,162.4,85.3,162.5L85.3,162.5z"/>
		<path d="M91.1,149.1c1.8-0.6,3.9,0.3,5.5,1c0.9,0.5,1.8,1,2.7,1.6c0.8,0.5,1.4,1.2,2.1,1.9c0.1,0.1,0.2,0.1,0.2,0
			c0.1-0.1,0.1-0.1,0-0.2c-0.5-0.8-1.3-1.4-2-1.9c-0.9-0.7-1.9-1.2-3-1.6C95,149.1,92.8,148.3,91.1,149.1
			C91,149,91,149.1,91.1,149.1L91.1,149.1z"/>
		<path d="M84.2,162c-9.8-0.6-18.3,8.2-20.4,17.3c-0.6,2.8-0.7,5.6,0.1,8.4c0.1,0.3,0.6,0.2,0.5-0.1c-1.3-4.9-0.1-9.9,2.4-14.2
			c2.3-3.9,5.7-7.3,9.9-9.2c2.4-1.1,4.9-1.6,7.6-1.7c0.1,0,0.2-0.1,0.2-0.2C84.3,162.1,84.3,162,84.2,162L84.2,162z"/>
		<path d="M54,150.7c0.1-1.6,0.2-3.1,0.5-4.7c0.3-1.4,0.7-2.9,1.3-4.2c1.2-2.9,3-5.4,5.2-7.6c2.3-2.2,5.1-3.9,8.2-4.7
			c2.9-0.7,6-0.5,8.8,0.2c1.6,0.4,3.1,1,4.5,1.9c1.4,0.8,2.6,1.9,3.8,3.1c0.2,0.2,0.6-0.1,0.5-0.4c-1.7-2.4-4.5-3.9-7.2-4.9
			c-2.9-1-6-1.4-9-0.9c-6.4,1.1-11.9,6-14.7,11.7c-1.5,3.1-2.5,6.9-2.2,10.3C53.7,150.6,53.8,150.7,54,150.7
			C53.9,150.9,54,150.8,54,150.7L54,150.7z"/>
		<path d="M61.8,139.9c0.6-1,1.3-1.8,2.3-2.3c0.1,0,0-0.1,0-0.1C63,137.8,62.1,138.8,61.8,139.9L61.8,139.9L61.8,139.9L61.8,139.9
			L61.8,139.9z"/>
		<path d="M63.3,139.4c0.2-0.6,0.6-0.9,1.1-1.3V138C63.8,138.2,63.4,138.8,63.3,139.4C63.1,139.4,63.2,139.5,63.3,139.4L63.3,139.4z
			"/>
		<path d="M62.7,133.6c0.1,0.2,0.2,0.4,0.4,0.6c0,0.1,0.1,0,0.1-0.1c-0.1-0.2-0.2-0.5-0.3-0.7h-0.1
			C62.6,133.5,62.6,133.6,62.7,133.6z"/>
		<path d="M63.4,133.4l0.4,0.8h0.1L63.4,133.4C63.5,133.4,63.5,133.3,63.4,133.4L63.4,133.4L63.4,133.4z"/>
		<path d="M88.1,158.7c0.3-0.1,0.6-0.2,0.8-0.4v-0.1l0,0c-0.3,0-0.6,0.2-0.8,0.3C87.9,158.6,88,158.8,88.1,158.7L88.1,158.7z"/>
		<path d="M88.7,157.4c0.3,0.1,0.5,0.2,0.8,0.2c0.1,0,0.1,0,0.1-0.1v-0.1c-0.2-0.1-0.5-0.2-0.8-0.2c-0.1,0-0.1,0.1-0.1,0.1
			C88.7,157.4,88.7,157.4,88.7,157.4L88.7,157.4z"/>
		<path d="M103.2,168.4c0.5,0.5,1.1,1,1.6,1.5c0.5,0.6,1,1.2,1.3,1.9h0.1v-0.1c-0.4-1.4-1.5-3-3-3.6
			C103.2,168.1,103.2,168.3,103.2,168.4L103.2,168.4z"/>
		<path d="M93.4,144.9c0.2,0.2,0.4,0.4,0.6,0.6c0.1,0.1,0.2-0.1,0.1-0.1C93.9,145.1,93.7,144.9,93.4,144.9
			C93.4,144.7,93.3,144.8,93.4,144.9L93.4,144.9z"/>
		<path d="M94.1,144.3c0.2,0.1,0.5,0.3,0.7,0.3c0.1,0,0.2-0.1,0.1-0.2c-0.2-0.1-0.5-0.3-0.7-0.4C94.1,144.1,93.9,144.2,94.1,144.3z"
			/>
		<path d="M65.3,186.9c0.3,0.4,0.6,0.8,0.9,1.2h0.1C65.9,187.7,65.6,187.3,65.3,186.9L65.3,186.9z"/>
		<path d="M65.7,186.5c0.3,0.3,0.5,0.6,0.8,0.9c0,0,0.1,0,0.1-0.1C66.3,187,66,186.7,65.7,186.5C65.7,186.4,65.6,186.5,65.7,186.5
			L65.7,186.5z"/>
		<path style="fill:#3F3F3F;" d="M67.3,180.8c0.8,0,0.8-1.2,0-1.2S66.5,180.8,67.3,180.8z"/>
		<path style="fill:#3F3F3F;" d="M70.3,174.9c0.8,0,0.8-1.3,0-1.3S69.5,174.9,70.3,174.9z"/>
		<path style="fill:#3F3F3F;" d="M77.2,168.9c0.8,0,0.8-1.3,0-1.3C76.3,167.6,76.3,168.9,77.2,168.9z"/>
		<path style="fill:#3F3F3F;" d="M86.1,167.1c0.8,0,0.8-1.3,0-1.3C85.2,165.8,85.2,167.1,86.1,167.1z"/>
		<path style="fill:#3F3F3F;" d="M101,171c0.9,0,0.9-1.3,0-1.3S100.2,171,101,171z"/>
		<path style="fill:#3F3F3F;" d="M105,174.4c0.8,0,0.8-1.2,0-1.2C104.3,173.2,104.3,174.4,105,174.4z"/>
		<path style="fill:#3F3F3F;" d="M65.6,186.1c0.6,0,0.6-0.9,0-0.9C65,185.2,65,186.1,65.6,186.1z"/>
		<path d="M96.2,207.7c0.7-0.6,1.1-1.5,1.6-2.2c0.5-0.8,1-1.6,1.4-2.5c0.8-1.6,1.5-3.4,2-5.2c0,0,0,0,0-0.1c0,0,0,0-0.1,0l0,0
			c-0.6,1.8-1.3,3.5-2.1,5.2c-0.4,0.8-0.9,1.6-1.3,2.4C97.2,206.1,96.5,206.9,96.2,207.7C96.1,207.7,96.1,207.7,96.2,207.7
			L96.2,207.7L96.2,207.7z"/>
		<path d="M95.3,206.2c1-1.9,1.6-3.9,1.8-6c0-0.1-0.1-0.1-0.1,0C96.7,202.3,96.1,204.3,95.3,206.2C95.2,206.2,95.3,206.2,95.3,206.2
			L95.3,206.2z"/>
		<path d="M64.4,152.8c0.3,1.3,0.8,2.7,1.3,3.9c0,0.1,0.2,0,0.1-0.1c-0.3-1.3-0.8-2.6-1.3-3.9C64.5,152.7,64.4,152.7,64.4,152.8
			C64.4,152.7,64.3,152.8,64.4,152.8L64.4,152.8z"/>
		<path d="M67.1,153.9c0.2,0.4,0.4,0.9,0.6,1.3c0,0.1,0.2,0,0.1-0.1c-0.1-0.5-0.4-0.9-0.6-1.3C67.2,153.8,67,153.9,67.1,153.9
			L67.1,153.9z"/>
		<path d="M79.9,135.4c0.2,0.6,0.5,1.1,0.8,1.7c0,0.1,0.2,0,0.1-0.1c-0.2-0.6-0.5-1.1-0.8-1.7C80,135.3,79.9,135.4,79.9,135.4
			L79.9,135.4z"/>
		<path d="M78.7,135.1c0.2,0.4,0.4,0.9,0.7,1.3h0.1v-0.1l0,0C79.3,135.9,79.1,135.5,78.7,135.1C78.8,135.1,78.8,135.1,78.7,135.1
			L78.7,135.1L78.7,135.1z"/>
		<path d="M80,165.3c0.2,0.5,0.4,1,0.7,1.5c0,0.1,0.2,0,0.1-0.1c-0.2-0.5-0.4-1-0.7-1.5C80.1,165.2,79.9,165.2,80,165.3L80,165.3z"
			/>
		<path d="M71.3,165.7c0.8-0.6,1.5-1.2,2.4-1.7s1.9-0.9,2.9-1.3c0,0,0.1,0,0-0.1c0,0,0-0.1-0.1,0l0,0c-1,0.3-1.9,0.7-2.8,1.2
			C72.9,164.2,71.9,164.8,71.3,165.7L71.3,165.7L71.3,165.7z"/>
		<path d="M73,163.5c0.3-0.2,0.6-0.4,1-0.5c0.3-0.2,0.7-0.2,1-0.4l0,0l0,0C74.3,162.6,73.5,163,73,163.5L73,163.5L73,163.5L73,163.5
			z"/>
	</g>
</g>
<g>
	<path style="fill:#7898B8;" d="M332,162.2c-33.8,11.5-68.8,0.6-102.6-10.1c-5.1-1.7-10.3-3.3-15.4-4.8
		c-24.2-7.2-45.8-10.3-64.1-9.3c-24.7,1.3-44,10.2-57.2,26.2c0-0.1-0.1-0.1-0.1-0.2c-0.1-0.1,0-0.1,0-0.2
		c11-13.5,27.5-22.2,47.4-25.2c31.3-4.8,61.1,4.4,90,13.3c11.2,3.3,22.6,6.9,34,9.6c26.2,6.2,47,6.5,65.3,0.9
		c0.9-0.3,1.8-0.6,2.7-0.9v-2.4c-0.7,0.2-1.3,0.4-2,0.7c-18,5.6-38.5,5.2-64.4-0.9c-11.4-2.6-22.9-6.2-33.9-9.6
		c-29.1-9.1-59.1-18.3-90.8-13.5c-20.4,3.2-37.2,12.1-48.6,25.9c-0.9,1-0.5,2.2,0.3,2.9c0.9,0.7,1.9,0.6,2.6-0.2
		c12.9-15.6,31.7-24.3,55.9-25.6c18.2-0.9,39.6,2.2,63.6,9.3c5.1,1.6,10.3,3.2,15.4,4.8c32.3,10.1,65.6,20.5,98.1,11.8
		c1.3-0.3,2.5-0.7,3.8-1.1V162.2z"/>
</g>
<g>
	<path style="fill:#4B7198;" d="M332,160.4c-0.8,0.3-1.7,0.6-2.5,0.8c-21.1,6.5-43.7,4.1-64.8-0.9c-41.2-9.7-80.8-29.6-124.3-23
		c-18.6,2.8-36,10.8-48,25.5c-0.7,1,0.8,2.5,1.7,1.4c29.1-35.4,81.5-28.2,120.4-16.6c37.5,11.1,78.4,27.8,117.5,15.2V160.4z"/>
</g>
</svg>
