<?xml version="1.0" encoding="utf-8"?>
<!-- Generator: Adobe Illustrator 26.1.0, SVG Export Plug-In . SVG Version: 6.00 Build 0)  -->
<svg version="1.1" id="Capa_1" xmlns="http://www.w3.org/2000/svg" xmlns:xlink="http://www.w3.org/1999/xlink" x="0px" y="0px"
	 viewBox="0 0 334 416" style="enable-background:new 0 0 334 416;" xml:space="preserve">
<path style="fill:#4B7198;" d="M116.7,118c-34-2.3-69.9,0-101.1,14v8.9c9.6-4.7,19.7-8.3,29.9-10.7c23.2-5.5,47.3-6,71.1-4.3
	C121.9,126.3,121.9,118.3,116.7,118z"/>
<path style="fill:#7898B8;" d="M117,117c-40.9-2.8-74.5,1.9-101.7,14.2v1.6c26.9-12.3,60.2-16.9,101.1-13.9c2.1,0.1,3.2,1.9,3,3.6
	c-0.1,1.2-0.9,2.7-2.9,2.6c-28.1-1.9-50.7-0.6-71.3,4.3c-10.5,2.5-20.5,6.1-29.8,10.7v2.1c9.5-4.8,19.8-8.5,30.5-11.1
	c20.5-4.8,42.9-6.2,70.9-4.3c3.2,0.2,4.7-2.1,4.8-4.3C121.9,120,120.3,117.2,117,117z"/>
<path style="fill:#024E96;" d="M128.6,95.3c0,0,0.5,8.7-21.6,22.6c-22.1,13.9-19.3,27.9-22.2,32.3c-2.9,4.4-3.9,16.9-10.3,24.8
	c-6.4,7.9-19,30.7-15.2,33.1c3.9,2.4,11.4,7.9,20.6,5.9s18.2-12.4,29.3-23.7c11.1-11.3,18.1-18.6,26.1-11.5
	c8,7.1,8.4,20.8,18.6,29.4c10.2,8.5,2.8,1.8,6.4,24.7c3.7,22.9,2.8,50.1,3.6,65.6c0.8,15.4,3.1,25.9,6.6,36.4
	c3.5,10.5,37.8,14.7,44.8,11.1c7-3.6,4.1-11.5,2.5-14.5c-1.6-3.1,3.5-14.7,0.5-29.7c-3-15-1.6-44.9-1.6-44.9l7.9-5.6
	c0,0,0.9-0.6,6.6,7.9c5.6,8.5,12.1,18,19.6,25.8c7.6,7.9,17.4,16,19.7,17.5c2.3,1.5,37.7-3.5,32.2-22.3c0,0-2.6-13.7-6.9-21.9
	c-4.3-8.2-27.5-48.9-31.7-55.2c-4.2-6.3-11.8-15.8-11.8-15.8s3.9-7.8-5.8-20.3c-9.7-12.6-3.7-8.4-9.4-22.5c-5.8-14.1,22-2,43.2-3.3
	c21.2-1.3,23.6-1.6,25.9-15.8c2.3-14.2-10.8-22.1-10.8-22.1s-34.5-6.7-51.3-6.9c0,0-2.2,2.1-22-12.3c0,0-17-3.1-27.4,1.7
	C184.3,90.8,133.4,83.5,128.6,95.3z"/>
<path style="fill:#FFFFFF;" d="M278.8,119.4c0,0-5.2-1.9-8.2-8.3c-3-6.4,3.6-3.4-4.8-9.3c-8.4-5.9-15.5-5.3-18.4-7.7
	s-5.7-4.8-1.9-7.8s19.1,7.6,25.9,0.7c6.8-6.9,7-13.3,7.2-26.6c0.2-13.3,0.9-16.8,4.8-18.9c3.9-2.1,5,2.2,4.7,5.8
	c-0.3,3.6-3.3,21.2,0.6,22.6c3.9,1.5,4.4-2.5,5.5-8.3c1.1-5.8,2.1-16,3.8-19c1.7-3,3.1-4.9,5.8-4.8s3.5,2.9,2.9,5.6
	c-0.6,2.7-5.2,23.8-7.4,28.5c0,0,3.2,0.5,11.5-14.5s10.4-3.7,8.7,0.4c-1.7,4.1-5.8,13.6-12.2,20.1c0,0-0.2,5,4.1,2.5
	c4.3-2.5,11.8-9,13.8-8.6c2.1,0.4,4.6,1.2,3.7,3.6c-0.9,2.4-1.6,3.5-7.4,7.9c-5.8,4.4-9.7,6.2-12.6,11.7l-4.6,8.8
	c0,0,1.8,3.7-0.4,7.3c-2.2,3.6-3.1,5.8-7.9,7.5C291.2,120.3,287,121.7,278.8,119.4z"/>
<path style="fill:#FFFFFF;" d="M127.9,109.1c0,0-20.8-3.5-33-29.9c-12.2-26.4,5-49.9,16-56.4c11-6.5,18.9-12.9,43.9-12.2
	c25.1,0.8,35.6,21.4,38.9,31.1s6.7,21.7,2.7,34.4l-3.8,9.8c0,0,4.2-0.6,1.9,7.1c-2.3,7.7-9.9,11.4-18.2,16
	c-8.3,4.6-18.1,7.9-26.1,8.5C142.2,118.2,130.4,117.3,127.9,109.1z"/>
<path style="fill:#FFFFFF;" d="M5.1,164.9c0,0-5.9,3.8-3.7,8.6c2.2,4.9,11.8,1.2,11.8,1.2s-2.8,8,1.5,10.4c4.3,2.4,4.4,2.6,4.7,7
	c0.3,4.3,6.6,5.2,6.6,5.2s0.4,3,5.3,5c4.9,1.9,9.1,2.8,12.1,2.2c3-0.5,3.6-1.1,4.9,0.9s10.6,4.5,17.9-1.9
	c7.3-6.4,12.7-14.2,8.4-24.1c-4.3-9.9-10.7-9.8-10.7-9.8s-1.9-7.2-8.5-12c-6.6-4.8-14.4-6.4-17.6-10.2c-3.2-3.8-8.2,0.3-7.6,4.6
	c0.6,4.3,5.7,5.8-9.2,8.7C6.1,163.6,5.1,164.9,5.1,164.9z"/>
<path style="fill:#FFFFFF;" d="M204.9,329.4c0,0-16.5,7.9-34.4,3.8c0,0-1.6,19.4,13.2,25.1l1.9,0.5c0,0,3.1,9.7,4.2,14.5
	c1,4.8,2.6,15.6,6.3,20.5c3.7,4.9,7.9,10.6,14.9,11.1c7,0.5,14.6,0.8,20.5-5.9c5.8-6.8,4.2-25.6,1-35.5c-3.2-9.9-4.2-23.2-8.7-26
	c0,0-3.6,1.5-4-3.7l-1.8-1.6c0,0-1.6,7.7-2.3,10.4C211,339.1,207.3,334.6,204.9,329.4z"/>
<path style="fill:#FFFFFF;" d="M254.6,289.3c0,0.7-3.5,2.7-0.6,12.2c2.9,9.5,7.1,19.8,9.1,28.6c2,8.9,3.1,13.4,14.7,14
	s17.9-6,19.5-10.9c1.5-4.9,3.8-12.9,1.5-19.4c-2.3-6.5-0.9-6.9-0.9-6.9c2.6-2.2,4.7-4.9,6-7.9c2.1-4.9,1.1-12.4-1.4-18
	c-3,3.6-6.7,6.5-10.8,8.9c-6.7,3.7-12.2,4.8-16.9,5.7s-0.5,5.2-1.4,7c-0.9,1.8-5.4-0.5-8.1-3.6C262.9,296,254.6,289.3,254.6,289.3z"
	/>
<path style="fill:#024E96;" d="M222.3,337.4c0,0,4.7,10.5,5.6,15.3c1,4.8,3.1,11.5,4.2,18.8s1.9,13.1,1.2,17
	c-0.7,3.9-4,10.1-4.5,11.8c-0.5,1.7,6.6-3.1,7.5-7.3c0.9-4.2,2.9-6,0.3-21.7c-2.6-15.6-2.6-22.9-5.2-28.1
	C228.8,338,222.3,337.4,222.3,337.4z"/>
<path style="fill:#024E96;" d="M252.9,286.8c0,0-2.5,2-2.4,9.2c0.1,7.3,1.5,3.5,4.8,14.5c3.3,11,1.4,3,4.1,14.8
	c2.7,11.8,6.2,13.9,8,15.3c0,0-2-7.8-2.4-12.9c-0.5-5-3.8-13.9-6-18.6c-2.2-4.7-3.9-7.7-3.8-12.6c0.2-4.9,1.7-5.8,1.7-5.8
	L252.9,286.8z"/>
<path style="fill:#676766;" d="M172.6,31.2c0,0-15-2.9-36.9,6.3s-28.9,21-28.9,21s0.5,22.9,19.3,43.1c0,0,19,3.2,39.9-6.6
	c20.9-9.8,24.9-18.8,24.9-18.8S192.5,49.6,172.6,31.2z"/>
<path style="fill:#929599;" d="M168,112.9c0,0.2-0.7,1.7,1,3.9c0,0-0.6,2.9-1.7,4.7c0,0,3,1.3,4.8,0.6l-1-4.5c0,0,6.4-1.4,1-6.3
	L168,112.9z"/>
<path style="fill:#F4A36C;" d="M213.3,350.2c0,0,3.3,2,5.9-1.1c2.6-3.1-1.1-5.2-1.1-5.2S214.5,346.5,213.3,350.2z"/>
<path style="fill:#F4A36C;" d="M265.5,299.8c0,0-2.5,1.6-0.2,4.2c2.3,2.6,4.6-0.5,4.6-1.3C269.8,301.7,265.5,299.8,265.5,299.8z"/>
<path style="fill:#929599;" d="M99.4,33.9c0,0-0.4,71.9,54.2,73.9c0,0-7.3,2.7-11.1,2.8c-3.8,0.1-0.4,0-0.4,0s-2.1,7.4,11.5,6.2
	c0,0-14.6,3.1-19.8-0.9c-5.2-4.1-5.1-3.1-6-6c-0.9-2.9-25.8-6.3-35-36.2C92.8,73.7,85.3,51.4,99.4,33.9z"/>
<path style="fill:#676766;" d="M91.5,68.6c0,0,15.9,37.1,49.2,41.8c-2.3,0.2-4.7,0.2-7,0c0,0-0.7,6,13.7,7.2c0,0-10.8,1.2-17.7-4.7
	c0,0-1.3-2.1-2.5-3.8C125.9,107.5,99.7,104.2,91.5,68.6z"/>
<path style="fill:#3F3F3F;" d="M109.2,72.6c0,0,14.9,33.2,50.9,25.2c0,0-19.2,7-33.5,3.1C126.6,100.9,118.6,93.8,109.2,72.6z"/>
<path style="fill:#929599;" d="M154.2,34.3c6.6-1.2,12.7-0.4,18.2,3.1c4,2.5,6.8,6.5,9.2,10.6c1.6,2.7,3,5.6,3.4,8.8
	c0.4,3.1-0.4,6.6-2.8,8.7c-2.6,2.3-6.4,2.5-9.7,1.7c-3.3-0.8-6.3-2.6-9.4-4.1c-5.9-2.8-12.2-4.5-18.7-4.9c-2.4-0.2-4.9-0.2-7.3-0.8
	c-2.4-0.6-6-1.8-6.6-6.7C129.6,41.9,140.2,36.8,154.2,34.3z"/>
<path style="fill:#E8ECF4;" d="M169.7,39.6c2.3,1,4.3,2.8,5.4,5c0.8,1.4,1.1,3.3,0.3,4.7c-0.8,1.4-2.4,2.2-4,2.3
	c-1.6,0.1-3.2-0.3-4.8-0.8c-4-1.2-8.1-2.3-11.8-4.3c-0.8-0.4-4.3-1.9-2.2-5.8C155.2,36,164.3,37.2,169.7,39.6z"/>
<path style="fill:#929599;" d="M150.1,100.3c0,0,17.7-0.4,28.9-9s11.9-15.1,11.9-15.1S178.1,94,150.1,100.3z"/>
<path style="fill:#929599;" d="M64.2,194.2c0,0,6,3.3,11-2.3c0,0-1.7,9.7-14,14.2c-12.3,4.5-15.7-2.1-10.9-2.5
	C55.1,203.2,64.2,194.2,64.2,194.2z"/>
<path style="fill:#929599;" d="M201.7,330.6C201.7,330.6,201.8,330.6,201.7,330.6c-2.1,2.4-1.8,6.1,0.6,8.2c1.1,0.9,2.4,1.4,3.8,1.4
	c-1.5,1.8-1.5,4.5,0,6.3c1.1,1.2,2.7,1.9,4.3,1.8c1.6-0.1,3.1-0.6,4.4-1.6L201.7,330.6z M214.9,346.7c-0.1,0.5-2,7.3-10.8,10.1
	c-9.2,2.8-16.7,4-22.8,0.4c-6.1-3.6-8.9-11.9-10-16.1c-0.7-2.6-0.8-5.3-0.3-7.9c0.4,0.2,8.5,3.8,28.9-1.9L214.9,346.7z"/>
<path style="fill:#929599;" d="M217.7,350.7c0.5-4.8,4.4,4.8,5.2,9.6c1,6.2-0.5,11.3-0.5,14.6c0,3.9,0.4,7.7,1.3,11.5
	c0.5,2.3,1.3,5,3.5,5.9c1.7,0.7,3.6,0.1,4.6-1.4l1.3-1.3c0,0-1,7.2-4.8,11.3c-3.8,4.2-13.9,6.4-22.7,2c-8.8-4.4-10.6-9.6-12.8-16.5
	c-2.2-6.9-3.8-16.8-5.3-21.8c-1.5-5.1-2.5-5.4-2.5-5.4s10.8,1.8,20-2.8c9.2-4.6,8.6-6.2,8.6-6.2S217.6,352,217.7,350.7z"/>
<path style="fill:#929599;" d="M216.9,336.7c0,0,0.2,0.4,2.3,0.8c0,0,0,6.7-2.6,7.9c-2.6,1.2-1-4.3-1-4.3L216.9,336.7z"/>
<path style="fill:#676766;" d="M201,342.1c-1-0.2-2,0.1-3,0.2c-1.1,0.2-2.1,0.4-3.2,0.6c-2.2,0.5-4.4,1-6.7,1.4
	c-4.7,0.8-9.4,0.9-14.2,0.7c-1.5-0.1-1.5,2.3,0,2.4c4.8,0.1,9.7-0.4,14.5-1c2.3-0.3,4.5-0.6,6.7-1.1c1.9-0.4,4.6-1.1,6-2.5
	c0.2-0.2,0.2-0.5,0-0.6L201,342.1z"/>
<path style="fill:#676766;" d="M202.6,352c-1.9,0-3.8,0.7-5.7,0.9c-1.9,0.2-3.7,0.5-5.6,0.7c-3.9,0.4-7.7,0.1-11.6,0.2
	c-1.3,0-1.7,2.1-0.3,2.3c3.9,0.7,8.3,0.4,12.2-0.1c1.9-0.2,3.7-0.5,5.6-1.1c1.8-0.6,4.1-1,5.7-2.1c0.2-0.1,0.3-0.4,0.1-0.7
	C202.9,352.1,202.8,352,202.6,352z"/>
<path style="fill:#676766;" d="M213.3,368c-3.5,1-6.7,2.2-10.4,2.5c-3.7,0.3-7.1-0.4-10.7-0.7c-0.7-0.1-0.7,0.9-0.2,1.1
	c3.6,1.3,8,1.2,11.7,0.8c3.4-0.4,7.2-1.2,9.9-3.3C213.8,368.3,213.6,368,213.3,368z"/>
<path style="fill:#676766;" d="M213.3,368.1c-3.3,1.7-6.7,3.2-10.4,3.6c-3.7,0.4-6.8-0.2-10.2-1.8c-1-0.5-1.9,0.9-0.9,1.6
	c3.2,2,7.8,2.8,11.5,2.4c4.1-0.4,8.1-1.8,10.5-5.3C214.1,368.3,213.6,367.9,213.3,368.1z"/>
<path style="fill:#676766;" d="M186.2,360.1c0.6,0.8,1.8,0.8,2.7,1.1c1.4,0.3,2.9,0.5,4.4,0.6c3.1,0.1,6.1-0.2,9.1-0.9
	c5.1-1.2,9.9-3.7,13.4-7.7c1.4-1.7-0.9-4.1-2.4-2.4c-3.2,3.6-7.4,5.8-12.1,7c-2.7,0.6-5.5,1-8.3,1.2c-1.3,0.1-2.5,0.2-3.8,0.4
	C188.2,359.4,187,359.2,186.2,360.1C186.2,360,186.2,360,186.2,360.1z"/>
<path style="fill:#676766;" d="M215.6,392.9c0,0,3.7,12.9,14.2,5.9c0,0-0.2,5.9-12.1,6.5c-11.9,0.6-15.4-4.2-17.8-6.9
	c-2.4-2.7-3.5-4.6-3.5-4.6S204,396.4,215.6,392.9z"/>
<path style="fill:#929599;" d="M275.3,313c2.7,4.2,3.8,9.3,3.2,14.3c-0.2,1.9-0.7,3.9-0.4,5.8c0.4,1.9,2.3,3.5,4.2,3.3
	c0,0,8-0.8,16.2-6.5c0,0-1.7,9.4-11.6,12.5s-16,1.2-18.5-2c-2.5-3.2-3.6-12-4.6-16.5c-1-4.5-1.2-8.2-4.4-13.4s-6.6-17.7-2.5-19.2
	l8.5,8.5c0,0-1.6,0.5-1.2,2.8c0.4,2.3,4.4,2.5,4.6,1.9C269.2,303.8,275.3,313,275.3,313z"/>
<path style="fill:#929599;" d="M295,287.9c0,0,7.4,1.4,5.4,9.7c0,0,4.1,1,2.5,4.9c0,0-5.6,6.6-14.7,8.8c-9.1,2.3-17.6,3.5-19.2-9.3
	l4,0.6c0,0-0.1-6.7,2-7.7C277.2,294,280.6,297,295,287.9z"/>
<path style="fill:#676766;" d="M282.4,294c0,0,9.8,1.5,7,10c0,0,4.8,3.6-2.2,6.8c0,0-5.6,4.7-12.2,0.7s-6.1-7.6-5.2-9.2
	c0.8-1.6,3.8,3.5,3.9,1.3c0.1-2.3-2.2-7.2,0.5-7.8C276.9,295.2,282.4,294,282.4,294z"/>
<path style="fill:#676766;" d="M255.6,292.6c-1.9,5.2-0.1,10.7,2.3,15.3c1.2,2.3,2.6,4.5,3.7,6.8c1.3,2.6,2,5.4,2.4,8.3
	c0.8,4.9,1,10.1,3.3,14.6c2.1,3.9,5.9,6.6,10.4,6.1c0.2,0,0.3-0.1,0.4-0.3c0-0.2-0.1-0.3-0.3-0.4c-1.9-0.7-3.7-1.8-5.3-3.2
	c-1.7-1.5-2.3-3.3-2.9-5.4c-1.2-4.6-1.3-9.4-2.1-14c-0.9-4.9-3.2-9.1-5.6-13.4c-2.3-4.1-4.3-8.8-2.6-13.5
	C260.1,291.3,256.4,290.3,255.6,292.6z"/>
<path style="fill:#929599;" d="M272.9,108.1c0.6,0.5,5.1,4.2,11.5,5.1c7.2,0.9,8.3-0.1,10.4-0.6c2.1-0.5,5.5-1.3,5.5-1.3
	s2,1-0.5,5.6c0,0-3.8,3-13.1,3.7c-9.4,0.6-12.4-3.5-13.8-5.6s-3.4-8-1.6-7.4L272.9,108.1z"/>
<path style="fill:#929599;" d="M280.3,45.1c-1.9,4.9-1.9,10.4-1.8,15.5c0.1,5,0.9,10.8-0.8,15.6c-0.1,0.3,0.4,0.5,0.6,0.2
	c1.2-2.2,2.3-4.4,3-6.8c0.7-2.5,1.2-5.1,1.3-7.7c0.5-5.3,0.6-10.5,2.1-15.6C285.6,43.4,281.3,42.4,280.3,45.1z"/>
<path style="fill:#929599;" d="M277.8,77.3C277.8,77.3,277.9,77.2,277.8,77.3C277.9,77.2,277.8,77.2,277.8,77.3
	C277.8,77.2,277.7,77.2,277.8,77.3C277.7,77.3,277.8,77.3,277.8,77.3z"/>
<path style="fill:#929599;" d="M243.8,87.8c-0.8,1.1,0.2,2.8,0.8,3.8c0.8,1.3,1.9,2.4,3.3,3.2c3.5,2,7.7,2.9,11.6,4.2
	c2.8,0.9,5.6,2.3,8,4c1.3,0.9,2.8,1.8,3.9,2.9c1.4,1.5,2.4,3.2,3.6,4.8c0.1,0.2,0.4,0.3,0.6,0.1c0.2-0.1,0.2-0.3,0.2-0.5
	c-0.8-3-3-5.8-5-8.1c-1.8-2-4.4-3.5-6.8-4.7c-3.6-1.9-7.5-3-11.3-4.4c-1.6-0.5-3.1-1.2-4.6-2c-0.7-0.4-1.5-0.8-2-1.4
	c-0.5-0.6-0.4-1.4-1.1-1.9C244.6,87.4,244.1,87.4,243.8,87.8C243.8,87.7,243.8,87.8,243.8,87.8z"/>
<path style="fill:#929599;" d="M299.1,41.5c-0.9,2.1-1.1,4.7-1.6,7c-0.5,2.4-1,4.9-1.5,7.3c-0.5,2.3-1.2,4.6-1.9,6.9
	c-0.3,1-0.6,2.1-0.8,3.1c-0.2,1.2-0.8,2.4-0.8,3.6c0,0.3,0.2,0.5,0.5,0.5c0.1,0,0.2-0.1,0.3-0.1c0.8-0.9,1.1-2.1,1.7-3
	c0.7-1,1.2-2.1,1.7-3.3c1-2.2,1.8-4.4,2.7-6.7c1-2.3,1.8-4.6,2.5-7c0.7-2.4,1.5-5.1,1.4-7.6C303.1,39.6,300,39.3,299.1,41.5z"/>
<path style="fill:#929599;" d="M307.6,78c1.3-1.6,2.4-3.2,3.7-4.7c1.3-1.5,2.3-3.5,3.3-5.3c1-1.8,2-3.6,2.9-5.4
	c0.9-1.8,2.1-3.7,2.8-5.7c0.8-2.3-2.7-3.7-3.9-1.6c-1,1.7-1.6,3.8-2.4,5.6c-0.8,1.8-1.5,3.7-2.4,5.5c-1.7,3.6-3.3,7.3-5.4,10.7
	C305.8,77.8,307,78.8,307.6,78z"/>
<path style="fill:#929599;" d="M325.1,75.2c-1.5,0.8-2.6,2.5-3.8,3.7c-1.1,1.1-2.3,2.1-3.5,3.1c-2.2,1.8-4.6,3.5-6.4,5.7
	c-4.3,5.3-6.2,11.8-8.8,18c-0.3,0.7,0.8,1,1.1,0.3c2.6-6.4,5.2-12.5,10.7-17c2.1-1.7,4.5-3,6.7-4.7c1.2-0.9,2.4-1.9,3.4-3
	c1.2-1.2,2.7-2.7,3-4.4C327.7,75.7,326.4,74.5,325.1,75.2z"/>
<path style="fill:#929599;" d="M280.5,85.3c0,0,6.9,4.4,9.5,15.7C290,101,293.8,88.5,280.5,85.3z"/>
<path style="fill:#676766;" d="M293.5,112.8c-2.7,0-5.6-0.2-8.3-0.4c-3.3-0.3-6.3-1.4-9.5-2.1c-0.2-0.1-0.5,0.1-0.5,0.3
	c0,0.2,0,0.4,0.2,0.5c2.6,1.9,6.1,2.5,9.3,2.8c3,0.3,6,0,8.8-0.9C293.5,113,293.6,112.9,293.5,112.8
	C293.5,112.9,293.5,112.8,293.5,112.8z"/>
<path style="fill:#676766;" d="M282.7,112.9c0,0-2.1,4.6,1.6,7.3c0,0-7.4-0.3-10.9-5.6c-3.5-5.3-1.8-8.8-1.8-8.8
	S272.8,109.4,282.7,112.9z"/>
<path style="fill:#929599;" d="M290.6,75.2c1,1.3,2.5,1.9,3.8,2.8c1.6,1,3.2,1.9,4.9,2.8c0.3,0.1,0.5-0.2,0.3-0.4
	c-1.2-1.2-2.5-2.3-3.9-3.3s-2.7-2.4-4.3-2.8C290.8,74.1,290.2,74.7,290.6,75.2z"/>
<path style="fill:#929599;" d="M301.4,82.6c0.9,1,1.6,2.3,2.8,3c0.1,0.1,0.2,0,0.3-0.1c0-0.1,0-0.1,0-0.2
	C303.9,84,302.6,83.3,301.4,82.6C301.5,82.6,301.4,82.6,301.4,82.6z"/>
<path style="fill:#929599;" d="M303.3,75.6c0.5,0.4,1,0.8,1.6,1.2c0.1,0,0.2,0,0.2-0.1c0-0.1,0-0.1,0-0.2c-0.5-0.5-1-0.9-1.6-1.2
	C303.4,75.1,303.1,75.5,303.3,75.6z"/>
<path style="fill:#929599;" d="M294.4,70.7l0.1-0.1c0,0,0-0.1-0.1-0.1C294.3,70.6,294.3,70.6,294.4,70.7
	C294.3,70.7,294.3,70.7,294.4,70.7z"/>
<path style="fill:#929599;" d="M294.4,70.7l1.7,0.4c0.1,0,0.1-0.1,0-0.1L294.4,70.7C294.3,70.5,294.3,70.6,294.4,70.7z"/>
<path style="fill:#676766;" d="M57.6,199.7c0,0,6.1,3.8,11.2,1.3c0,0-6.5,6.2-12.3,6s-9-2.5-9-2.5S55.9,200.9,57.6,199.7z"/>
<path style="fill:#929599;" d="M54.9,194.3c0,0,7.7,1.3,12.4-4.2c0,0-3.4,6.4-9.6,9.5c-6.2,3.1-16.2,7.9-25.9,2.8
	c0,0,13.9,3.3,20.9-4.4L54.9,194.3z"/>
<path style="fill:#929599;" d="M43.5,195.6c0.5-0.2,3.2,5.9,10.1,1.8c0,0-5.9,5.7-13.6,6.1c-7.7,0.3-15.3-3-14-6.2
	C26,197.3,33.9,198.4,43.5,195.6z"/>
<path style="fill:#929599;" d="M24.8,187.4c0.6-0.3,4.7,4,12.3,3.3s10.4,4.4,5.2,4.9c-5.2,0.6-14.6,3.3-19.1,0.9s-4.9-6.4-4.5-8.1
	C19.3,186.7,21.9,188.8,24.8,187.4z"/>
<path style="fill:#929599;" d="M19.4,172.9c0,0-5,5.5,0,7.9c5,2.4,5.4,8.1,1.1,6.8c-4.3-1.3-7.8-2.1-8.2-7.3
	c-0.5-5.2,1.7-5.9,1.7-5.9L19.4,172.9z"/>
<path style="fill:#929599;" d="M2.4,167.7c0,0-2.4,9.8,19.1,4.6c0,0-18.2,7.6-19.3,2.9S2.4,167.7,2.4,167.7z"/>
<path style="fill:#929599;" d="M30.2,154.4c0,0,2.6-5.9,5.8-3.1c3.2,2.8,5.3,5.5,9.1,6.7c3.8,1.1,8.5,6,9.8,9
	c1.3,3-7.2,1.4-11.3,1.1c-1.7-2.8-4.2-5-7.2-6.4C31.6,159.3,30.2,154.4,30.2,154.4z"/>
<path style="fill:#676766;" d="M52.3,202.4c0,0-1.7,0.6-4.8-0.9c0,0-8.6,3.5-13.3,1.9c0,0,2.3,2.1,13.3,1.2
	C49.2,203.9,50.8,203.2,52.3,202.4z"/>
<path style="fill:#676766;" d="M32.2,197.5c0,0,1.9,6,12.1,5.1c0,0-7.6,2.3-13.4-0.4s-4.9-4.9-4.9-4.9L32.2,197.5z"/>
<path style="fill:#676766;" d="M22,188.7c0,0,3.1,4.3,7.7,4.7c4.6,0.4,6.9,3,4.9,3.9c0,0-7.1,1.3-11.3-0.9c-4.3-2.1-5.5-6.7-4-8.6
	C20.8,186,22,188.7,22,188.7z"/>
<path style="fill:#929599;" d="M36.4,166.6c-0.6,1.2-0.5,2.7-0.5,4c0,1.4,0.3,2.8,0.8,4c0.6,1.3,1.3,2.6,2.4,3.5
	c1,0.8,2.1,1.9,3.5,1.8c0.4,0,0.8-0.4,0.8-0.8c0-0.1,0-0.1,0-0.2c-0.4-1-1.3-1.7-1.9-2.6c-0.7-0.9-1.3-1.9-1.8-2.9
	c-0.5-1-1-2.1-1.4-3.2c-0.4-1.2-0.2-2.3-0.5-3.5c-0.1-0.4-0.5-0.6-0.9-0.5C36.6,166.4,36.5,166.5,36.4,166.6z"/>
<path style="fill:#676766;" d="M59.6,201.5c2-1.6,3.4-4,4.1-6.4c0.2-0.7-0.8-1-1.1-0.5c-1.3,2-2.7,3.9-4.2,5.7
	c-0.3,0.3-0.3,0.9,0,1.2C58.8,201.8,59.3,201.8,59.6,201.5z"/>
<path style="fill:#A9C5DB;" d="M268,120.9c-5.1-3.4-11.8-2.9-17.9-2.3c-6.1,0.6-12.9,0.9-17.7-2.8c-2.7-2.1-4.4-5.1-6.3-7.9
	c-1.9-2.8-4.4-5.5-7.6-6.3c-5.3-1.3-10.3,3-15.2,0.6c0,0-1.6-8.5-7.1-2c0,0-3-1.5-2.4-4c0.6-2.5,2.1-6.6,1.4-8.9
	c-0.7-2.3-1.1-1.5,1.2-2.2c2.3-0.7,5.4-1.8,15.1-2.6c9.7-0.7,13.6,1.8,18.5,5.6c4.9,3.8,9.4,9.1,22.6,8.1c0,0,11.3,3.8,15,7.3
	c3.7,3.5,0.8,3.1,0,7.1c-0.8,4,2.3,9.7,1.4,10.1C268.1,121.2,268,120.9,268,120.9z"/>
<path style="fill:#A9C5DB;" d="M132.3,115.6c-7.6,2.7-14.2,7.5-19.2,13.7c-3.1,3.9-6.2,8.7-11.1,9.2c-4.6,0.4-8-3.6-12.5-2.4
	c0,0,0.1-7.2,16-17.3c15.9-10.1,15.2-12.1,15.2-12.1l7.5,3.3c0,0,2,3.4,4.1,4.9C134.4,116.4,132.3,115.6,132.3,115.6z"/>
<path style="fill:#A9C5DB;" d="M75.3,194.5c2.2,0.3,4.4,0.3,6.6,0.7c2.2,0.4,4.5,0.7,6.6,0.1c2.1-0.6,4.5-2.6,4.8-4.8
	c0,0,3-8.7-7.2-14.9c-10.2-6.1-13.8-0.1-12.9,1.3c0.9,1.4,5.2,8.5,1.9,15.8C75.2,192.7,73.5,194.3,75.3,194.5z"/>
<path style="fill:#A9C5DB;" d="M300.9,115.8c0,0,3.8,2.9,3.4,18c0,0,3.6-2.8,2.4-12.7c-1.2-9.9-3-9-3-9c-0.4,1.5-1.5,2.7-3,3.3"/>
<path style="fill:#A9C5DB;" d="M240.3,160.4c0,0,4.7,10.9,6.3,18.3c1.6,7.4,1,20.8-0.3,24.5c-1.4,3.7,7.3-15.3,6.9-19.5
	c-0.4-4.2,1.1-5.9-5.1-14.7c-6.2-8.8-6-9.9-7.7-15.1C238.8,148.7,241.6,158.4,240.3,160.4z"/>
<path style="fill:#A9C5DB;" d="M248.6,200.5c2.5-0.2,4.6,2.1,5.4,4.6c0.8,2.4,0.6,5.1,1.3,7.5c0.8,3.1,2.7,5.8,4.5,8.5
	c14.1,20.8,23.8,44.3,33.4,67.5c0,0,7.5-4.1,9.7-8.3c2.2-4.2-14.8-38.1-22.5-49.9c-7.7-11.8-20.7-36.1-25.8-40.9l-1.9-2.5
	c0,0-3.5,9.6-4.8,12.6C246.5,202.6,248.6,200.5,248.6,200.5z"/>
<path style="fill:#A9C5DB;" d="M208.9,260.3c-1.3,10.8,2.5,21.7,2.1,32.6c-0.4,12.2-6.7,24.4-5.7,36.6c0,0,1.8,5.2,5.2,8.5
	c3.4,3.3,4.8,4.7,4.8,4.7s2.2-6.8,2.6-11c0.4-4.2,2.4-14.1,0-34.5c-2.4-20.4-0.7-40.7-0.7-40.7"/>
<path style="fill:#A9C5DB;" d="M233,375.4l4.5,2c0,0-1-14.7-4.5-27.3s-5.7-11.1-7.5-11.9c-1.8-0.8-2.9,0-2.9,0s3.2,6.6,4.1,10
	c0.9,3.4,2,6.4,3.3,13.3C231.3,368.4,232.4,371.9,233,375.4z"/>
<path style="fill:#A9C5DB;" d="M250.4,295.5l4.7,1.5c0,0,0.1-5.1,1.5-6.1l-3.9-4.1C252.7,286.8,250.9,287.1,250.4,295.5z"/>
<path style="fill:#FFFFFF;" d="M206.8,118.9c-5.6,0.2-10.8,3.1-14,7.8c-0.3-0.1-0.6-0.1-1-0.1c-1.8,0.1-3.2,1.6-3.1,3.4
	c0,1,0.6,2,1.5,2.6c-2.4,9.6,3.5,19.4,13.1,21.8c1.4,0.4,2.9,0.5,4.4,0.5c0.2,0,0.5,0,0.7,0c4.8-0.2,9.3-2.3,12.5-5.8
	c0.5-0.6,1-1.2,1.5-1.8l2.1,1c0.2,0.1,0.3,0,0.3-0.2l-0.2-5.2c3.2-9.4-1.8-19.7-11.2-22.9C211.3,119.2,209,118.9,206.8,118.9z
	 M224,136.2c0.1,1.9-0.2,3.7-0.7,5.5l-4.4,3.6c-0.1,0.1-0.1,0.2-0.1,0.3l0.1,0.1l1.9,0.9c-0.4,0.5-0.8,1-1.2,1.4
	c-6.1,6.7-16.5,7.2-23.2,1c-4.4-4-6.3-10.1-4.9-15.9c0.2,0,0.3,0,0.5,0c1.8-0.1,3.2-1.6,3.1-3.4c0-0.9-0.4-1.7-1.1-2.3
	c2.9-4.2,7.6-6.8,12.7-7c0.2,0,0.4,0,0.6,0C216.4,120.4,223.7,127.4,224,136.2z"/>
<path style="fill:#FFFFFF;" d="M210.8,138.1c0.7-1.6,1.1-2.9,1.3-3.9c0.1-0.9,0.1-1.8-0.3-2.7c-0.6-1.5-1.6-2.6-3-3.1
	c-1.4-0.5-2.9-0.5-4.2,0c-1.4,0.5-2.5,1.3-3.1,2.2c-0.7,1.1-1.3,2.3-1.5,3.6l3.6,0.6c0.4-1.8,1.1-2.9,2.1-3.3c1-0.4,2.2,0.1,2.6,1.1
	v0.1c0.2,0.6,0.2,1.3,0,1.9c-0.3,1.1-0.7,2.1-1.2,3.1l-3,6.7l1,2.7l11.6-4.3l-1.2-3.3l-6.5,2.4L210.8,138.1z"/>
<path style="fill:#676766;" d="M289.9,305.9c4.2-1.5,7.9-4.2,10.7-7.7c0.3-0.4-0.2-0.9-0.5-0.5c-3,3-6.6,5.3-10.6,6.8
	C288.6,304.8,289,306.2,289.9,305.9z"/>
<path style="fill:#676766;" d="M175.3,335.3c0,0-3.1,6.3,4.4,9.7c0,0-5.2,1.8-6.9,0.9c-1.7-0.9-3.3-12.9-2.3-12.7
	C171.6,333.4,175.3,335.3,175.3,335.3z"/>
<path style="fill:#676766;" d="M184.5,345c0,0-8.2,7.3,2.5,9l-9.4,0.1c0,0-5-6.3-4.8-8.2c0.2-1.9,4.6-0.9,4.9-0.9H184.5z"/>
<path style="fill:#676766;" d="M187.9,354.1c0,0-1.5,5,6.5,4.3c0,0-7.4,2.5-13.2-1.2c-5.8-3.7-1.9-3.1-0.7-3.1
	C181.8,354.1,187.9,354.1,187.9,354.1z"/>
<path d="M186.1,95.6c13.4-12.6,16.2-33.6,10-50.4c-2.9-7.9-6.7-15.5-12.2-21.8c-5.4-6.3-12.7-10.7-20.7-12.6c-8.8-2-18-1.9-26.8-0.2
	c-8.8,1.7-17.5,4.9-24.7,10.2c-7.8,5.6-14.8,13.5-18.7,22.3c-4.3,9.6-4.2,20.8-1.3,30.8c4.9,16.8,18.3,31.2,35.2,36.3
	c2.1,0.6,4.3,1.1,6.5,1.4c1.6,0.2,2.3-2.2,0.7-2.4c-16.6-2.5-30.8-14.3-37.7-29.4c-4.1-9-5.7-19.5-3.5-29.3
	c2.1-9.4,8.3-17.6,15.4-24C121,15,139.6,10.3,156.4,12c8,0.8,15.6,3.5,21.8,8.8c6,5.2,10.2,12,13.4,19.1c3.6,7.9,5.8,16.2,5.5,25
	c-0.4,8.8-3.2,17.1-7.7,24.7c-1.2,1.9-2.4,3.8-3.8,5.6C185.2,95.4,185.7,96,186.1,95.6z"/>
<path d="M191.4,75.2c-1,0.2-1.4,0.8-2,1.5c-0.7,0.8-1.5,1.6-2.2,2.4c-1.6,1.6-3.2,3.2-5,4.6c-3.8,3-7.8,5.6-12.1,7.7
	c-8.9,4.5-18.5,7.3-28.4,8.4c-2.6,0.3-5.2,0.4-7.8,0.5c-2.5,0-5.3-0.5-7.8,0.1c-0.6,0.1-0.8,1.1-0.2,1.4c2,1,4.7,0.9,6.9,1
	c2.5,0,5.1-0.1,7.6-0.3c5.1-0.5,10.1-1.4,15-2.8c9.7-2.8,19-7.2,27-13.5c2.1-1.6,4-3.4,5.8-5.3c1.3-1.3,3.9-3.6,3.6-5.6
	C191.6,75.2,191.5,75.2,191.4,75.2z"/>
<path d="M172.5,30.7c-2.2-0.5-4.7-0.5-7-0.5c-2.4,0-4.9,0.2-7.3,0.4c-4.8,0.5-9.6,1.5-14.3,2.9c-9.3,2.8-18.1,7.3-25.8,13.2
	c-2.1,1.6-4,3.3-5.9,5c-1.9,1.8-4.1,3.8-5.5,6.1c-0.5,0.8,0.6,1.5,1.2,0.9c1.7-1.5,3.2-3.5,4.9-5.1c1.6-1.6,3.3-3.1,5-4.6
	c3.6-3,7.5-5.7,11.7-7.9c8.3-4.6,17.4-7.6,26.9-8.9c2.6-0.4,5.3-0.6,7.9-0.6c2.7-0.1,5.4,0.2,8,0C172.9,31.7,173.1,30.8,172.5,30.7z
	"/>
<path d="M172,31.4c0.9,1.6,2.5,2.9,3.7,4.3c1.4,1.6,2.6,3.2,3.8,5c2.4,3.4,4.3,7,5.9,10.9c1.5,3.7,2.6,7.5,3.3,11.4
	c0.8,4.2,0.8,8.2,0.9,12.4c0,1.3,1.8,1.2,1.9,0c0.4-4.2-0.2-8.6-0.9-12.7c-1.5-8.2-4.8-16-9.6-22.9c-1.2-1.7-2.5-3.3-3.9-4.8
	c-1.3-1.4-2.8-3.3-4.5-4.1c-0.2-0.1-0.5,0-0.6,0.2C171.9,31.1,171.9,31.3,172,31.4z"/>
<path d="M106.3,58.5c-0.3,4,0.5,8,1.5,11.9c1,4.1,2.4,8,4.2,11.8c1.7,3.8,3.8,7.5,6.2,10.9c1.1,1.6,2.3,3.2,3.6,4.8
	c1.1,1.4,2.4,3.5,4.1,4.1c0.7,0.3,1.4-0.5,1.2-1.2c-0.5-1.6-2.2-2.9-3.3-4.2c-1.3-1.6-2.5-3.2-3.7-4.9c-2.3-3.3-4.3-6.8-6-10.4
	c-1.8-3.7-3.2-7.5-4.3-11.5c-1.1-3.8-1.6-7.7-2.4-11.5C107.2,57.8,106.3,58,106.3,58.5z"/>
<path d="M193.6,86.2c1.8,5.8-1.2,10.8-5.6,14.5c-4.2,3.5-9.3,6.2-14.2,8.6c-5.1,2.5-10.4,4.4-15.9,5.8c-5.1,1.2-10.6,2.1-15.8,1.6
	c-5-0.4-10.6-2.1-13.4-6.5c-0.6-1-2.1-0.1-1.5,0.9c2.5,4.1,7.5,6.1,12,7c5.5,1,11.3,0.4,16.7-0.6c6.2-1.2,12.1-3.3,17.8-5.9
	c5.5-2.6,11.2-5.6,15.8-9.5c4.6-3.8,8.5-10.4,5.6-16.4C194.6,84.9,193.4,85.4,193.6,86.2z"/>
<path d="M118.3,108.4c-2.6,1.1-4.9,3.2-7.2,4.9c-2.4,1.8-4.8,3.5-7.2,5.3c-4.2,3.1-8.3,6.4-11.5,10.5c-5.6,7.3-7.5,16.7-10,25.4
	c-1.5,5.1-3.1,10-5.6,14.7c-0.5,1,0.9,1.9,1.6,0.9c4.7-7.6,6.3-16.9,8.9-25.3c1.3-4.3,2.9-8.5,5.2-12.3c2.8-4.5,6.9-8,11.1-11.2
	c2.5-1.9,5-3.7,7.5-5.6c1.4-1,2.8-2,4.2-3.1c1.2-0.9,2.7-1.9,3.7-3.1C119.3,109.1,119,108.1,118.3,108.4z"/>
<path d="M94,190.8c2.2-5.3-1.4-11.4-5.5-14.8c-2.1-1.8-4.7-3.1-7.4-3.6c-2.7-0.5-6.4-0.3-8.4,2c-0.4,0.5-0.4,1.2,0.1,1.6
	c0.3,0.3,0.7,0.4,1,0.3c1.3-0.3,2.5-1,3.8-1.2c1.2-0.2,2.4-0.2,3.6-0.1c2.3,0.4,4.5,1.3,6.4,2.7c2,1.5,3.5,3.4,4.6,5.7
	c1.2,2.3,1.3,4.8,1,7.3C93.1,191.2,93.8,191.2,94,190.8z"/>
<path d="M126,171.6c-7.8,8.3-15.9,16.4-24.3,24.1c-4.2,3.9-8.4,7.6-12.7,11.2c-2.1,1.8-4.2,3.8-6.7,5c-2.2,1.1-5.2,0.9-7.6,0.6
	c-5.5-0.7-10-3.3-14.7-6.1c-1.4-0.8-3.1,1.2-1.8,2.3c3.6,3.1,8.9,4.8,13.5,5.6c5.1,0.9,10,0.7,14.3-2.5c4.7-3.6,9.1-7.5,13.5-11.5
	c4.6-4.1,9.1-8.3,13.4-12.7c4.9-4.9,9.5-10.1,14.1-15.3C127.5,171.8,126.6,170.9,126,171.6z"/>
<path d="M159.2,216.2c-0.1,1.4-0.3,2.6-0.3,4c0,1.2,0,2.5,0.1,3.7c0.1,2.6,0.2,5.1,0.4,7.7c0.4,4.9,0.7,10.2,2.1,14.8
	c0.3,0.8,1.7,0.7,1.6-0.2c-0.2-2.3-0.7-4.6-1-6.9c-0.4-2.7-0.8-5.3-1.1-8c-0.3-2.4-0.5-4.9-0.7-7.4c-0.1-1.2-0.2-2.5-0.2-3.7
	c-0.1-1.3-0.3-2.7-0.4-4c0-0.1-0.1-0.2-0.3-0.2C159.3,216,159.2,216.1,159.2,216.2z"/>
<path d="M172,117.2c1.5,3.2,4.2,6.1,6.4,8.9c1.1,1.3,2.3,2.7,3.1,4.2c0.9,1.8,0.9,3.8,0.9,5.7c0.1,6.5,0.2,13.3,2.5,19.4
	c2.3,6.2,7,10.5,10.6,15.8c4.1,5.9,6,13.3,8.4,20c2.8,7.8,5.5,15.8,8.7,23.4c0.2,0.5,1,0.1,0.9-0.4c-2.1-7.3-4.7-14.6-7.3-21.8
	c-2.4-6.7-4.4-13.8-7.7-20.1c-3.1-5.8-8.4-10.2-11-16.3c-2.8-6.4-2.7-13.5-2.8-20.3c0-1.8,0-3.8-0.7-5.5c-0.7-1.7-2-3.1-3.1-4.4
	c-2.6-3.1-5.1-6.7-8.3-9.2C172.1,116.3,171.8,116.9,172,117.2z"/>
<path d="M131.4,167.8c3.9-0.2,7.7,0.5,11.3,1.9c0.8,0.3,1.1-0.8,0.5-1.3c-3.3-2.5-8.1-3.1-12-1.6C130.8,167,130.8,167.8,131.4,167.8
	z"/>
<path d="M134.5,170.2c2.9,1.3,5.6,3.3,7.9,5.5c0.6,0.5,1.6-0.2,1.1-0.9c-2.2-2.9-5-4.8-8.6-5.7C134.3,169,133.9,169.9,134.5,170.2z"
	/>
<path d="M133.2,177.4c6.4,6.8,9.2,15.7,14.1,23.5c4.7,7.5,11,13.8,18.6,18.3c4.2,2.5,8.9,4.8,13.7,5.3c1.5,0.2,1.5-2,0.3-2.5
	c-4-1.7-8.1-2.9-12-4.9c-3.9-2-7.5-4.5-10.7-7.4c-3.2-2.9-6.1-6.3-8.4-10c-2.4-3.7-4.2-7.7-6.2-11.6c-2.2-4.3-4.7-8.5-8.5-11.6
	C133.5,175.9,132.6,176.8,133.2,177.4z"/>
<path d="M131.3,155.2c-0.7-4.1-2.1-7.7-4.4-11.1c-0.1-0.2-0.4-0.3-0.7-0.2c-0.2,0.1-0.3,0.4-0.2,0.7c1.8,3.5,3.1,7.2,4,11
	C130.2,156.4,131.5,156.1,131.3,155.2z"/>
<path d="M209.1,83.3c3.5-0.1,7.1-0.1,10.5,0.7c3.4,0.8,6,2.7,8.6,5c2.3,2,4.5,4,7.2,5.5c3,1.6,6.2,2.5,9.5,3.1
	c1.7,0.3,2.4-2.3,0.7-2.5c-3.6-0.6-7.1-1.5-10.2-3.3c-2.8-1.6-5.1-3.9-7.7-5.9c-2.6-2-5.3-3.4-8.5-3.9c-3.5-0.5-6.9,0-10.3,0.5
	C208.5,82.5,208.7,83.3,209.1,83.3z"/>
<path d="M304.1,112.7c0.4,2.7,1.2,5.3,1.3,8.1c0.1,2.5,0.2,5.2,0,7.7c-0.5,4.7-4.1,8-8.2,9.9c-5.5,2.5-12.1,1.2-17.9,0.9
	c-6.1-0.3-12.1-0.5-18.2-0.8c-3.5-0.2-6.9-0.5-10.3-1.1c-3.3-0.5-6.6-1.4-9.9-2.1c-1.5-0.3-2,1.7-0.6,2.2c3,1.2,6.4,1.7,9.5,2.2
	c3.1,0.5,6.4,0.8,9.6,1.1c6.7,0.5,13.4,0.6,20.1,0.7c6,0.1,12.7,1.1,18.4-1.5c4.1-1.8,8.2-5.2,9.1-9.8c0.6-2.9,0.4-6.1,0.2-9.1
	c-0.2-3.1-0.7-6.2-2.3-8.9C304.7,111.8,304,112.2,304.1,112.7z"/>
<path d="M236.7,124.9c-0.5,1.4-0.5,3.1-0.6,4.6c-0.1,1.7-0.2,3.4-0.3,5c-0.2,3.3-0.3,6.6,1,9.7c1.3,3.1,2.4,5.9,2.7,9.3
	c0.2,3.2-0.2,6.5,0,9.7c0,0.7,1.2,0.9,1.3,0.2c1.3-5.9,1-12.5-1.4-18.1c-0.7-1.7-1.4-3.2-1.7-5.1c-0.2-1.7-0.2-3.4,0-5.1
	c0.1-1.8,0.1-3.5,0.2-5.3c0-1.6,0.3-3.3-0.2-4.9c-0.1-0.3-0.4-0.4-0.6-0.3C236.8,124.6,236.7,124.7,236.7,124.9z"/>
<path d="M243.2,159.9c1,7.6,8.2,12.4,8.9,20.1c0.8,9.2-5.1,16.9-7.5,25.3c-0.3,1.1,1.3,1.5,1.7,0.5c3-8.2,8.3-16.4,7.7-25.5
	c-0.3-3.9-2-7.3-4.1-10.5c-2.2-3.2-4.6-6.3-5.6-10.1C244.1,159.2,243.1,159.3,243.2,159.9z"/>
<path d="M205.3,83.3c-1.9-0.4-3.7,0-5.6,0.3c-1.9,0.4-4.1,0.7-5.8,1.8c-0.4,0.2-0.3,1,0.3,1c1.8-0.2,3.6-0.9,5.3-1.3
	c1.9-0.4,3.9-0.6,5.7-1.2C205.6,83.7,205.6,83.3,205.3,83.3z"/>
<path d="M239.6,239.9c-3,0.7-6,3.1-8.5,4.9c-2.8,2.1-5.4,4.3-8.1,6.4c-5.7,4.4-11.9,8.1-19.3,8.3c-1.1,0-1.1,1.7,0,1.7
	c7,0.4,13.6-3.4,19-7.5c2.8-2.1,5.4-4.3,8.1-6.4c1.5-1.1,2.9-2.2,4.5-3.2c1.5-1,3.3-1.8,4.8-2.9
	C240.8,240.7,240.4,239.7,239.6,239.9z"/>
<path d="M254,190.4c4.2,4.9,8,10.2,11.3,15.7c3.5,5.9,7,12,10.5,17.9c3.6,6.1,7.1,12.2,10.7,18.4c3.3,5.7,6.6,11.4,9.3,17.4
	c3.1,6.9,5.3,14.3,5.8,21.9c0.1,1.6,2.7,1.6,2.5,0c-1.3-13.4-7.5-25.6-14.2-37.1c-7.3-12.6-14.6-25.1-22-37.6
	c-3.7-6.2-7.5-13-12.8-18C254.4,188.2,253.2,189.5,254,190.4z"/>
<path d="M250.5,238.4c-2.1,1.6-4.4,3.2-6.3,5c-0.1,0.2-0.1,0.4,0.1,0.5c0.1,0.1,0.3,0.1,0.4,0c2.3-1.4,4.3-3.2,6.4-4.9
	C251.4,238.8,250.9,238,250.5,238.4z"/>
<path d="M248.6,219.8c-1.4,2.5-2.9,4.8-4.6,7.1c-0.3,0.4,0.4,1,0.7,0.6c1.8-2.2,3.3-4.7,4.4-7.3
	C249.3,219.7,248.8,219.4,248.6,219.8z"/>
<path d="M196.6,263.5c-2.9,0.2-5.6,0.4-8.4-0.1c-0.5-0.1-0.7,0.6-0.2,0.7c2.8,0.7,5.9,0.8,8.6-0.3
	C196.8,263.8,196.8,263.5,196.6,263.5z"/>
<path d="M194,257.2c-6.4-0.8-12.3-3.6-17.4-7.5c-0.3-0.3-0.8,0.3-0.5,0.6c5,4.3,11.3,6.6,17.9,7.2
	C194.2,257.5,194.2,257.2,194,257.2z"/>
<path d="M197,94.9c-1.1,6.2-3.5,11.9-6.5,17.5c-0.1,0.2-0.1,0.5,0.2,0.6s0.5,0.1,0.6-0.2c3.4-5.3,5.3-11.6,6-17.9
	C197.3,94.8,197,94.7,197,94.9z"/>
<path d="M204.2,97.4c-3.1,6.3-7.4,11.7-12.5,16.4c-0.5,0.4,0.2,1.1,0.7,0.7c5.4-4.4,9.6-10.3,12.5-16.7
	C205.2,97.3,204.4,96.8,204.2,97.4z"/>
<path d="M148,123c-6.1,0.6-11.5-0.8-17.2-2.9c-0.3-0.1-0.5,0.3-0.2,0.5c5.2,2.9,11.7,3.4,17.4,2.6C148.2,123.2,148.1,123,148,123z"
	/>
<path d="M268.7,105.1c-1.3,1.9-2,4.7-2.2,6.9c-0.2,2.2,0.3,4.3,0.9,6.4c0.8,2.8,1.6,5.4,3.1,7.9c1.3,2.1,3.2,4.7,5.7,5.5
	c0.7,0.2,1.5-0.7,1-1.3c-1.5-2.1-3.7-3.5-5.1-5.7c-1.4-2.2-2.2-4.7-2.8-7.2c-0.4-1.8-0.8-3.6-0.6-5.4c0.3-2.3,1.3-4.4,1.4-6.7
	C270.3,104.6,269.1,104.4,268.7,105.1z"/>
<path d="M228.2,254.9c0.9,2.6,2.8,5,4.2,7.3c1.5,2.3,3.1,4.6,4.7,6.9c3.2,4.5,6.6,8.9,10.1,13.1c3.6,4.3,7.4,8.5,11.4,12.4
	c3.6,3.5,7.9,8.3,13.1,9.2c1.3,0.2,2.3-1.6,0.9-2.2c-5-2.4-8.9-5.9-12.9-9.8c-3.9-3.7-7.6-7.5-11.2-11.5c-3.7-4-7.1-8.3-10.3-12.7
	c-1.6-2.2-3.2-4.5-4.7-6.8c-1.4-2.1-2.6-4.7-4.3-6.6C228.8,253.9,227.9,254.3,228.2,254.9z"/>
<path d="M216,260.3c-0.5,6.1-0.4,12.4-0.2,18.5c0.2,6.1,0.5,12.3,1.2,18.5c0.7,6.2,1.4,12.2,1.2,18.4c-0.1,3.1-0.4,6.3-0.9,9.4
	c-0.4,2.9-1.1,5.8-1,8.7c0,0.8,1.2,1.3,1.6,0.4c1.2-2.8,1.4-5.8,1.7-8.8s0.5-6,0.5-9.1c0.1-6.2-0.8-12.3-1.5-18.4
	c-0.7-6.2-1.1-12.3-1.3-18.5c-0.2-6.4,0-12.8-0.4-19.2c0-0.3-0.2-0.5-0.5-0.5C216.2,259.8,216,260,216,260.3z"/>
<path d="M161.8,251.7c-0.6,11.7,0.2,23.5,0.5,35.2c0.3,9.3,0.7,18.5,2,27.8c0.8,5.7,2,11.3,3.5,16.9c0.4,1.7,3.1,1,2.6-0.7
	c-2.4-9.2-4.2-18.4-4.9-27.9c-0.8-10.5-1-21-1.4-31.5c-0.2-6.6-0.6-13.2-1.4-19.7c0-0.3-0.2-0.5-0.5-0.5
	C162,251.3,161.8,251.5,161.8,251.7z"/>
<path d="M296.9,308.4c0.7,4,1.6,7.9,1.7,12c0.1,3.8-0.4,7.7-1.7,11.3c-2.3,6.2-8.6,10.2-15.1,11.1c-6.3,0.9-14.4-1.5-17.7-7.3
	c-3.7-6.5-4-14.5-6.3-21.5c-1.3-4-3.5-7.5-4.9-11.4c-1.4-4.2-1.5-8.7-0.1-12.8c0.6-1.8-2.3-2.6-2.8-0.8c-1.2,4-1.3,8.2-0.3,12.2
	c1,4.2,3.6,7.9,5,11.9c2.8,7.7,3,16.6,7.1,23.8c3.6,6.2,11.8,9,18.6,8.4c6.4-0.5,13.6-4,16.9-9.7c4.8-8.2,3.5-18.8,1.1-27.5
	C298.2,307,296.8,307.4,296.9,308.4z"/>
<path d="M216.5,347.4c3.4-3.5,5.5-9.7,3.7-14.4c-0.3-0.8-1.7-0.8-1.6,0.2c0.2,1.9-0.1,4-0.5,5.8c-0.5,2.5-1.6,4.8-3.4,6.6
	C213.6,346.8,215.4,348.6,216.5,347.4z"/>
<path d="M186.8,364.8c3,8.9,3.2,18.7,7.2,27.3c3.8,8.3,11.6,14.1,20.8,14.7c8.8,0.6,17.4-4.3,21.7-12c5.4-9.8,2-21.7,0.2-32L235,353
	c-0.5-2.9-0.9-5.9-2-8.7c-1.8-4.6-6-9.3-11.4-8.1c-1.4,0.3-0.9,2.2,0.3,2.3c4.8,0.3,7.6,4.1,8.9,8.4c1.4,4.8,1.9,9.9,2.7,14.9
	c0.9,5.2,1.9,10.4,2.5,15.6c0.6,4.8,0.6,9.8-1.3,14.4c-3.1,7.2-10.6,12.3-18.5,12.4c-8.6,0.1-16.1-5-20-12.5
	c-4.3-8.5-4.9-18.3-8.1-27.2C187.8,363.7,186.6,364,186.8,364.8z"/>
<path d="M211.3,290.8c-0.8,4.3-1.5,8.7-2.1,13.1c0,0.3,0.4,0.4,0.4,0.1c0.8-4.3,1.5-8.7,2.2-13C211.9,290.6,211.4,290.4,211.3,290.8
	z"/>
<path d="M64.3,171.6c-0.2-4.1-2.4-7.9-4.8-11c-2.4-3.2-5.1-6.4-8.8-8.1c-1.3-0.5-2.7-1-4-1.4c-1.6-0.5-3.1-1.3-4.4-2.2
	c-2.1-1.4-4.4-3-7.1-3c-5.1,0-7.1,5.7-5.4,9.8c1.1,2.8,3.4,4.8,5.7,6.5c2.9,2.2,5.4,4.1,7.5,7.1c0.7,1,2.8,0.4,2.2-0.9
	c-1.9-4.5-6.9-6.4-10.3-9.5c-1.8-1.6-3.6-3.8-3.7-6.4c0-2.3,1.5-4.6,4-4.6c2.6,0,4.7,1.9,6.7,3.2c2.2,1.4,4.5,2,7,2.8
	c3.4,1.1,6.4,3.6,8.7,6.2c2.7,2.9,5.7,7.3,5.7,11.5C63.4,172.2,64.4,172.2,64.3,171.6z"/>
<path d="M28.1,158.4c-1.9,0.9-4.2,1.1-6.3,1.4c-2.1,0.3-4.2,0.5-6.3,0.8c-5.1,0.8-10.7,1.8-13.8,6.4c-2.5,3.5-2.2,9.7,2.9,10.6
	c2.6,0.4,5.4-0.7,7.9-1.4c3.1-0.9,6.3-1.7,9.3-2.7c1.4-0.5,0.8-2.5-0.6-2.2c-2.7,0.6-5.3,1.5-7.9,2.3c-2.4,0.7-5,1.9-7.5,2
	c-2.8,0.1-4.1-2.2-3.6-4.8c0.4-2.2,2.1-4,3.9-5.2c3.6-2.4,8.3-2.8,12.5-3.5c3.4-0.5,7.1-0.9,10.1-2.7
	C29.3,158.9,28.7,158.1,28.1,158.4z"/>
<path d="M22.4,178.4c1.7,1.6,4.4,4.2,2.9,6.8c-1.2,2-4.2,1.9-6.1,1.4c-2.2-0.6-4.2-1.9-5.2-4c-0.5-1-0.8-2.1-0.8-3.1
	c0-1.1,0.4-2.1,0.4-3.1c0-0.3-0.3-0.6-0.6-0.6c-0.2,0-0.3,0.1-0.4,0.2c-2,2-1.1,6.1,0.2,8.3c1.6,2.6,4.5,4.3,7.5,4.6
	c2.6,0.3,6.1-0.5,7-3.3c1.1-3.4-1.7-6.2-4.3-7.9C22.5,177.4,22,178,22.4,178.4z"/>
<path d="M29,186.3c3.4,2.4,7,1.2,10.8,1c2.1-0.1,4.5,0.2,5.9,2.1c1.5,2.1-0.1,4.4-2.2,5.4c-1.9,0.9-4.1,1.1-6.2,1.4
	c-2.5,0.4-4.9,0.6-7.4,0.6c-4,0-9.6-1-9.9-6c-0.1-0.9-1.5-1-1.5,0c0,5,5,7.2,9.3,7.5c3,0.2,6.1,0,9.2-0.4c2.5-0.3,5.1-0.7,7.4-1.8
	c4-2,4.9-7,0.8-9.4c-4.9-3-10.9,1.7-15.8-1c-0.2,0-0.3,0-0.4,0.2C28.9,186.1,28.9,186.2,29,186.3z"/>
<path d="M49.2,192.3c1.2-1.1,3.2-0.6,4,0.7c0.8,1.4,0.4,3.2-0.6,4.4c-1.9,2.5-5.6,3.5-8.5,4.3c-3.2,0.9-6.5,1.3-9.8,0.6
	c-1.4-0.3-2.8-0.8-4.1-1.4c-1.3-0.7-2.4-1.8-3.7-2.5c-0.3-0.1-0.7,0-0.8,0.3c-0.1,0.2-0.1,0.4,0,0.5c1.9,3.3,6.9,4.7,10.4,5.1
	c4.6,0.4,9.3-0.6,13.5-2.5c3.2-1.4,6.5-4.5,5.4-8.4c-0.8-2.7-4.5-4-6.4-1.7c-0.2,0.2-0.2,0.4,0,0.6C48.7,192.5,49,192.5,49.2,192.3z
	"/>
<path d="M37.8,166.5c-0.8,4.4,0.4,9.8,4.4,12.4c0.4,0.3,0.8-0.3,0.5-0.7c-3-3.3-5.1-7-4.5-11.7C38.1,166.3,37.8,166.3,37.8,166.5z"
	/>
<path d="M65.1,172.9c2.5,4,3.9,8.4,3,13.1c-0.6,3.2-2.5,5.7-4.8,7.9c-4.8,4.8-10.5,8.5-17.2,9.9c-0.7,0.1-0.7,1.3,0,1.4
	c3.4,0.6,6.9-1.4,9.7-3.1c3.5-2.1,6.6-4.8,9.2-7.8c2.3-2.7,3.6-5.3,4-8.9c0.5-4.4-0.6-9.4-3.7-12.8C65.3,172.5,65,172.7,65.1,172.9z
	"/>
<path d="M63.8,170c6.9,2.5,11.2,8.7,11.3,16c0.2,8.1-5.7,15.1-12.8,18.6c-3.5,1.8-7.6,2.1-11.4,1c-1.5-0.4-2.8-1.3-4.4-1.5
	c-0.3-0.1-0.7,0.1-0.7,0.5c0,0.2,0,0.4,0.1,0.6c1.7,1.9,4.9,2.6,7.4,2.9c2.5,0.3,5,0.1,7.4-0.7c4.7-1.5,8.6-4.8,11.7-8.5
	c5.2-6.4,5.8-15.8,1.5-22.8c-2.2-3.6-5.7-6.4-10.1-6.5c-0.2,0-0.3,0.2-0.2,0.4C63.6,169.8,63.7,169.9,63.8,170z"/>
<path d="M261.5,89c-2.9-1.2-5.8-2.2-8.8-3.1c-2.3-0.7-4.7-1.5-7-0.5c-4.2,1.8-2.8,7,0.4,9c2.1,1.4,4.7,1.9,7,2.8
	c2.4,0.9,4.7,2,6.9,3.3c2.3,1.3,4.5,2.7,6.7,4.3c2.1,1.5,3.9,3.7,6.2,4.9c1,0.5,2.1-0.5,1.5-1.5c-1-1.8-2.8-3-4.5-4.3
	c-1.7-1.3-3.4-2.5-5.2-3.6c-3.7-2.1-7.6-3.8-11.6-5.1c-2-0.7-4.3-1-6.1-2.2c-1.9-1.2-3.4-4.4-0.8-5.8c2.2-1.2,5.1,0.1,7.4,0.7
	c2.6,0.7,5.2,1.4,7.8,1.9c0.2,0,0.4-0.1,0.4-0.2S261.6,89,261.5,89z"/>
<path d="M269.1,89.1c4.1-1.3,6.5-5.1,8.1-8.9c1.8-4.4,2.3-9.3,2.4-14c0.1-5.9-0.6-11.9,0.7-17.7c0.3-1.3,0.6-2.8,1.3-4
	c0.6-1,2-2.4,3.3-2.4c2.3,0.1,2,3.8,1.9,5.3c-0.5,6.3-1.5,12.9-0.8,19.2c0.2,1.4,2.1,1.4,2.2,0c0.4-6.2,0.8-12.4,1.3-18.6
	c0.2-2.2,0.3-4.8-1-6.7c-1.3-1.9-3.8-2.1-5.7-1c-4.9,2.8-5.2,10.3-5.3,15.3c-0.2,6,0.5,12-0.5,17.9c-0.5,2.8-1.4,5.6-2.7,8.1
	c-1.4,2.5-3.4,4.7-5.5,6.6c-0.2,0.2-0.2,0.4,0,0.6C268.8,89.1,269,89.2,269.1,89.1z"/>
<path d="M287.3,69.6c0.8,1.3,2.6,1.6,3.9,1.4c2-0.3,2.6-2.4,3-4.1c1.1-5.3,2-10.7,3.1-16.1c0.5-2.6,0.9-5.2,1.7-7.7
	c0.8-2.4,2.9-5.1,5.8-4c2.1,0.8,1,4,0.6,5.5c-0.7,2.6-1.2,5.3-1.8,7.9c-0.7,3.2-1.5,6.4-2.3,9.6c-0.8,3.2-2,6.2-2.9,9.4
	c-0.3,1.3,1.6,2.2,2.2,0.9c1.3-2.7,2-5.7,2.8-8.5c0.8-2.9,1.5-5.8,2.2-8.8c0.7-2.9,1.3-5.9,2-8.8c0.5-2,1.2-4.1,0.8-6.2
	c-0.7-4.7-6.5-4.2-9-1.3c-1.7,2-2.3,4.5-2.8,7c-0.6,2.8-1.1,5.5-1.6,8.3c-0.6,3.2-1.2,6.4-1.8,9.6c-0.3,1.5-0.4,3.4-1.1,4.7
	c-0.6,1.2-2.6,1-3.5,0.2C287.8,68.3,286.8,68.9,287.3,69.6z"/>
<path d="M300.4,72.9c3.7-3.3,6.7-7.4,9.4-11.5c1.4-2.1,2.7-4.3,3.8-6.5c0.7-1.4,2-4.8,4-3.4c0.8,0.5,1.6,1.3,1.7,2.2
	c0.2,1.3-0.5,2.9-0.9,4.1c-0.9,2.4-1.9,4.7-3.2,6.9c-2.6,4.4-5.7,8.4-9,12.3c-0.9,1.1,0.7,2.7,1.6,1.6c3-3.6,5.9-7.2,8.3-11.2
	c1.3-2,2.4-4.2,3.3-6.3c0.9-2.1,1.9-4.4,2.1-6.7c0.3-3-2.8-6.7-6-5.7c-1.7,0.5-2.8,2.3-3.5,3.8c-1,2-2,4.1-3.1,6.1
	c-2.8,4.8-6.1,9.2-9.2,13.8C299.6,72.8,300.1,73.1,300.4,72.9z"/>
<path d="M307.2,79.3c-0.5,1.1,0.2,2.3,1.3,2.7c1.7,0.6,3.7-0.8,5.1-1.5c1.9-1.1,3.8-2.2,5.6-3.5c1.8-1.2,3.5-2.8,5.4-3.7
	c2.6-1.3,4.1,1.5,2.8,3.6c-1.2,1.9-3.5,3.3-5.3,4.6l-5.7,4.3c-1.8,1.4-4,2.6-5.3,4.6c-0.2,0.4-0.1,0.9,0.3,1.1
	c0.2,0.1,0.4,0.1,0.6,0.1c2.4-0.8,4.4-2.8,6.4-4.2l6.5-4.9c2.8-2.1,6.9-5,5-9.1c-0.7-1.5-2.2-2.7-3.9-2.6c-2.2,0-4,1.7-5.6,2.9
	c-1.9,1.4-3.9,2.8-5.9,4c-1.6,1-5,3.7-6.6,1.7C307.6,79.1,307.4,79.1,307.2,79.3z"/>
<path d="M309.6,93.1c-3,4-5,8.7-7.3,13.1c-1.1,2.1-2.3,3.9-4.6,4.7c-2,0.7-4.1,0.5-6.2,0.8c-0.5,0-1,0.4-1,1c0,0.5,0.4,1,1,1
	c4.4,0.5,9.1-0.9,11.5-4.8c1.4-2.3,2.6-4.9,3.8-7.3c1.3-2.6,2.8-5.2,3.7-8C310.7,92.9,309.9,92.6,309.6,93.1z"/>
<path d="M280,85.8c2.1,2.3,4.4,4.5,6,7.2c1.5,2.7,2.3,5.5,3.5,8.3c0.2,0.6,1.2,0.3,1.2-0.3c-0.2-3.1-1.9-6.3-3.5-8.9
	c-1.7-2.7-3.6-5.4-6.3-7.3C280.2,84.3,279.6,85.3,280,85.8z"/>
<path d="M304.5,103.5c-0.1,0.8,0.1,1.6,0,2.5c0,1-0.2,2.1-0.5,3.1c-0.6,2-1.7,3.9-3.1,5.4c-3.1,3.3-7.6,4.9-12,5.2
	c-4.2,0.3-8.7-0.4-12.2-2.8c-1.7-1.1-3.1-2.6-4.1-4.4c-1-1.8-1-3.7-1.9-5.5c-0.4-1-1.8-0.5-2.1,0.3c-0.7,2,0.4,4.7,1.4,6.5
	c1.2,2,2.7,3.8,4.7,5.1c4.2,2.9,9.6,3.7,14.6,3c4.8-0.6,9.7-2.5,13-6.2c1.5-1.7,2.6-3.7,3.2-5.8c0.5-1.8,0.9-4.7-0.2-6.3
	C305.2,103.1,304.6,103,304.5,103.5z"/>
<path d="M301.6,281.5c-5.8,5-12,9.3-19.5,11.4c-1.8,0.5-3.5,0.9-5.3,1.1c-1.4,0.2-2.8,0.5-3.7,1.6c-2,2.3,0.4,5.2-0.9,7.6
	c-0.3,0.4-0.1,1,0.3,1.3c0.3,0.2,0.7,0.2,1,0c1.3-0.6,1.6-1.8,1.5-3.1c-0.1-1.2-0.9-2.9-0.3-4.1c0.7-1.4,3.6-1.3,4.9-1.6
	c1.8-0.4,3.6-0.9,5.3-1.5c6.7-2.3,13.2-6.5,17.4-12.3C302.5,281.6,301.9,281.2,301.6,281.5z"/>
<path d="M268.3,301.9c-0.9,4,1.6,7.8,4.9,10c4.3,2.9,10,2.5,14.8,1.1c8.2-2.4,16.9-8.2,18.6-17.1c0.8-3.8,0.2-7.7-1.7-11.1
	c-0.5-0.9-1.7-0.2-1.5,0.6c0.6,3.7,1.3,7.3,0.1,11.1c-1.6,4.8-4.9,7.9-9.1,10.4c-4.2,2.5-9.4,4.6-14.4,4.4
	c-5.2-0.2-9.9-3.8-10.2-9.3C269.7,301.3,268.5,301.1,268.3,301.9z"/>
<path d="M171.6,334.2c2.3,1.2,5.1,1.4,7.8,1.5c2.9,0.1,5.8-0.1,8.7-0.6c6-0.9,11.8-2.7,17.5-4.5l-1.5-0.8c0.6,2,1.4,3.8,2.6,5.5
	c1,1.5,2.3,3.3,4,4c0.9,0.3,1.6-0.8,1.2-1.6c-0.8-1.4-2.3-2.5-3.2-3.9c-1-1.4-1.8-3-2.3-4.7c-0.2-0.6-0.8-1-1.5-0.8
	c-5.3,1.8-10.7,3.5-16.3,4.5c-2.8,0.5-5.6,0.8-8.4,0.9c-2.8,0-5.6-0.6-8.4-0.5C171.4,333.2,171.1,334,171.6,334.2z"/>
<path d="M214.5,339.4c1.5,4.9-0.6,10-4.5,13.2c-4,3.2-9.4,4.7-14.4,5.3c-4.3,0.6-9.4,0.7-13.3-1.5c-3.2-1.8-5.6-4.9-7.2-8.2
	c-1.1-2.2-1.9-4.5-2.4-6.9c-0.3-1.4-0.5-2.8-0.7-4.2c-0.1-1.4-0.1-2.7-0.7-4c-0.4-0.9-1.5-0.4-1.8,0.2c-1,2.4-0.1,5.9,0.5,8.3
	c0.6,2.5,1.4,4.8,2.6,7.1c1.9,3.7,4.7,7.3,8.4,9.3c4.3,2.4,9.7,2.2,14.4,1.5c5.3-0.8,11-2.5,15.3-5.8c4.4-3.5,7.3-9.5,4.5-14.9
	c-0.1-0.2-0.3-0.2-0.5-0.1C214.5,339.1,214.5,339.3,214.5,339.4z"/>
<path d="M202.1,341.3c-4.5,1.1-9.2,2.1-13.8,2.6c-2.2,0.2-4.3,0.4-6.5,0.4c-1.2,0-2.4,0-3.5,0c-1,0-2.1-0.2-3.1,0.1
	c-0.3,0.1-0.5,0.6-0.1,0.8c1.8,0.8,4.2,0.5,6.1,0.4c2.5-0.1,4.9-0.2,7.4-0.5c4.7-0.5,9.2-1.7,13.6-3.4c0.1,0,0.1-0.1,0.1-0.2
	S202.2,341.3,202.1,341.3z"/>
<path d="M204.9,351.1c-4.2,0.5-8.3,1.5-12.5,1.9c-4.2,0.4-8.5,0.2-12.7,0.6c-0.4,0-0.6,0.7-0.1,0.8c4.2,0.8,8.9,0.3,13.1-0.2
	c4.2-0.5,8.4-1.2,12.3-2.8c0.1-0.1,0.1-0.2,0.1-0.3C205,351.1,204.9,351.1,204.9,351.1z"/>
<path d="M302.3,295.9c-3.5,1.9-6.5,4.4-10.1,6.2c-1.9,1-3.8,1.8-5.7,2.6c-1.7,0.7-3.5,1.1-5.2,1.8c-0.5,0.2-0.3,1.1,0.3,1
	c3.8-0.5,7.7-2.4,11.1-4.2c3.5-1.9,7.3-4,9.9-7.1c0.1-0.1,0.1-0.2,0-0.2C302.4,295.9,302.3,295.9,302.3,295.9z"/>
<path d="M255.8,292c-2.6,4.2-0.9,9.8,0.9,13.9c1.1,2.6,2.5,5,3.6,7.6c1.2,2.7,2,5.6,2.5,8.5c0.9,4.9,1.6,9.9,3,14.7
	c1,3.5,3.2,6.6,7,7.2c0.4,0,0.7-0.2,0.7-0.6c0-0.3-0.1-0.6-0.4-0.7c-1.8-0.8-3.5-1.6-4.6-3.3c-0.9-1.5-1.4-3.2-1.8-4.9
	c-1.1-4.5-1.9-9-3-13.5c-1.2-4.8-3.1-9-5.3-13.4c-1.1-2.3-2.1-4.6-2.7-7.1c-0.6-2.8-0.5-5.5,0.1-8.3V292
	C255.8,291.9,255.8,292,255.8,292z"/>
<path d="M294.9,332c-6,2.9-12.4,4.7-19.1,5.2c-0.1,0-0.1,0.2,0,0.2c6.8-0.2,13.2-2,19.1-5.2C295.1,332,295,331.9,294.9,332z"/>
<path d="M222.1,336.7c0.2,2.2,1.4,4.5,2.2,6.6c0.9,2.3,1.8,4.6,2.6,7c1.4,4.6,2.6,9.2,3.6,13.9c1.1,5.2,1.9,10.4,2.4,15.6
	c0.5,4.5-0.1,9.1-1.6,13.5c-1.3,3.5-3.1,8.1-6.8,9.8c-0.8,0.4-0.2,1.6,0.6,1.4c3.4-1.1,5.3-4.7,6.5-7.8c1.6-3.8,2.5-7.8,2.5-11.9
	c0-5.6-1.2-11.1-2.2-16.6c-0.9-5.1-2-10.2-3.5-15.2c-0.8-2.9-1.7-5.8-2.6-8.6c-0.8-2.5-1.6-5.7-3.4-7.7c-0.1-0.1-0.2-0.1-0.2,0
	H222.1z"/>
<path d="M215.6,392.9c-6.6,1.8-13.3,2-20,0.8c-0.2,0-0.3,0.3-0.1,0.3c6.7,1.5,13.7,1,20.2-1C215.7,393,215.7,393,215.6,392.9
	C215.7,392.9,215.6,392.9,215.6,392.9z"/>
<path d="M172,111.8c1.1,1.3,2.3,3.4,0.3,4.6c-2.1,1.3-3.6-0.8-3.7-2.8c0-0.4-0.7-0.7-0.9-0.2c-0.7,1.3-0.2,3,0.9,4
	c1.2,1,2.9,1.1,4.2,0.3c1.3-0.7,2-2.2,1.8-3.6s-1-2.6-2.5-2.6c-0.1,0-0.2,0.1-0.2,0.2C172,111.8,172,111.8,172,111.8z"/>
<path d="M171.1,118.5c-0.3,0.5-0.2,0.9,0,1.4l0.5,2.3l0.3-0.6c-0.9,0.2-1.8,0.2-2.7,0c-0.7-0.2-1.3-0.7-2-0.7
	c-0.2,0-0.4,0.2-0.3,0.4c0.3,0.8,1.4,1.1,2.2,1.3c1,0.2,2.1,0.2,3.1-0.1c0.3-0.1,0.4-0.3,0.3-0.6l-0.5-2.2c-0.1-0.5-0.2-0.9-0.7-1.2
	C171.2,118.4,171.1,118.4,171.1,118.5z"/>
<path d="M168.8,116.5c-0.4,1.7-1,3.2-1.9,4.7c-0.1,0.2,0,0.5,0.2,0.6c0.2,0.1,0.4,0,0.6-0.1c1-1.5,1.4-3.3,1.6-5.1
	c0-0.1-0.1-0.2-0.2-0.2C168.9,116.4,168.8,116.5,168.8,116.5z"/>
<path d="M112.8,152.8c-5.5,1.8-11.2,1.5-16.8-0.1c-0.3-0.1-0.5,0.4-0.1,0.5c5.5,2.2,11.5,1.9,17-0.1
	C113.1,153,113,152.7,112.8,152.8z"/>
<path d="M189.3,172.1c-5,0.4-10.1-0.3-14.8-2.1c-0.3-0.1-0.5,0.4-0.2,0.5c4.6,2.4,10,3.2,15.1,2.1
	C189.6,172.5,189.6,172,189.3,172.1z"/>
<path d="M218.5,344.1c0.8,1.4,0.9,3.7-0.2,5c-1.1,1.3-2.8,1.5-4.3,1.1c-0.5-0.1-0.9,0.6-0.4,0.9c2,1.1,4.5,0.5,5.9-1.3
	c0.7-0.9,1-1.9,1-3c0-1.3-0.6-2.2-1.5-3c-0.1-0.1-0.3-0.1-0.4,0C218.4,343.8,218.4,344,218.5,344.1z"/>
<path d="M268,304.1c-1.1,0.1-2.1-0.3-2.7-1.2c-0.3-0.5-0.4-1.1-0.3-1.6c0.1-0.4,0.2-0.6,0-1c-0.1-0.1-0.2-0.2-0.3-0.2
	c-1.5,0.1-1.1,2.8-0.7,3.7c0.8,1.4,2.5,2.1,4.1,1.5C268.7,305,268.7,304,268,304.1z"/>
<path d="M41,174.6c0.4,1.2,1.3,2.2,2.4,2.8c0.1,0,0.2,0,0.2-0.1c0-0.1,0-0.2-0.1-0.2c-1-0.7-1.8-1.6-2.3-2.7
	C41.3,174.3,41,174.4,41,174.6z"/>
<path d="M65.5,187.4c1.6-1.3,2.1-3.4,1.7-5.3c0-0.2-0.2-0.3-0.4-0.3c-0.2,0-0.3,0.2-0.3,0.4C66.6,184,66.2,185.8,65.5,187.4
	C65.4,187.4,65.4,187.4,65.5,187.4C65.5,187.5,65.5,187.5,65.5,187.4z"/>
<path d="M54.9,204.3c0.6,0.1,1.1,0.1,1.7,0c0.1,0,0.1-0.1,0.1-0.1c0-0.1-0.1-0.1-0.1-0.1c-0.6-0.1-1.1-0.1-1.7,0
	c-0.1,0-0.1,0.1-0.1,0.1C54.7,204.2,54.8,204.3,54.9,204.3z"/>
<path d="M284.2,94.1c0.3,0.5,0.7,1.1,1,1.6c0.2,0.2,0.5,0,0.4-0.2c-0.3-0.6-0.7-1.1-1.1-1.6C284.3,93.7,284.1,93.9,284.2,94.1z"/>
<path d="M290.6,73.8c0,0.7,0.1,1.5,0.3,2.2c0,0.1,0.1,0.2,0.2,0.1c0.1,0,0.1-0.1,0.1-0.2c0-0.7-0.1-1.5-0.3-2.2
	c0-0.1-0.1-0.1-0.2-0.1S290.6,73.7,290.6,73.8z"/>
<path d="M292.4,118.1c0.7-0.6,0.9-1.6,0.6-2.4c-0.1-0.1-0.3,0-0.2,0.1c0.2,0.7,0,1.6-0.5,2.1C292.1,118.1,292.3,118.2,292.4,118.1z"
	/>
<path d="M294.5,117.3c0.5-0.6,0.7-1.3,0.6-2c0-0.2-0.4-0.2-0.4,0.1c0.1,0.6-0.1,1.3-0.4,1.8C294.3,117.2,294.4,117.3,294.5,117.3z"
	/>
<path d="M265.5,118.8c-0.2,1.6,0.2,3.1,1.3,4.3c0.1,0.2,0.5-0.1,0.3-0.2c-0.9-1.2-1.4-2.6-1.4-4.1
	C265.7,118.7,265.5,118.7,265.5,118.8z"/>
<path d="M162.3,218.9c1.8,2.5,4.4,4.3,7.4,5.2c0.3,0.1,0.5-0.3,0.2-0.5c-2.7-1.2-5.2-2.9-7.3-5C162.4,218.5,162.2,218.7,162.3,218.9
	z"/>
<path d="M252.1,199.3c1.5-1.9,2.3-4.3,2.2-6.8c0-0.1-0.1-0.2-0.2-0.2c-0.1,0-0.2,0.1-0.2,0.2c-0.3,2.4-0.8,4.5-2,6.6
	C251.8,199.3,252,199.4,252.1,199.3z"/>
<path d="M256.4,196.7c0-0.9,0-1.8,0-2.7c0-0.1-0.1-0.2-0.2-0.2c-0.1,0-0.2,0.1-0.2,0.2c0,0.9,0,1.8,0,2.7c0,0.1,0.1,0.2,0.2,0.2
	C256.3,196.9,256.4,196.8,256.4,196.7z"/>
<path d="M230.4,356c0.5,0,1.1,0,1.6,0c0.1,0,0.1-0.1,0.1-0.2c0-0.1-0.1-0.1-0.1-0.1c-0.5,0-1.1,0-1.6,0c-0.1,0-0.2,0.1-0.2,0.2
	S230.3,356.1,230.4,356z"/>
<path d="M230.9,358.4c0.8,0.4,1.8,0.2,2.3-0.5c0.2-0.2-0.2-0.5-0.4-0.3c-0.5,0.4-1.1,0.6-1.7,0.3
	C230.8,357.9,230.6,358.3,230.9,358.4z"/>
<path d="M259.6,316.6c0.6,0.3,1.5,0.6,2.2,0.3c0.1,0,0.1-0.2,0.1-0.2l-0.1-0.1c-0.3-0.1-0.6-0.1-0.9-0.1c-0.4,0-0.7-0.1-1-0.3
	C259.5,316.1,259.3,316.5,259.6,316.6z"/>
<path d="M259.8,315.7c0.4,0.1,0.8,0.1,1.2,0c0.1,0,0.2-0.1,0.1-0.3c0-0.1-0.1-0.1-0.1-0.1c-0.4-0.1-0.8-0.1-1.2,0
	c-0.1,0-0.2,0.1-0.1,0.2C259.7,315.6,259.7,315.6,259.8,315.7z"/>
<path d="M191.8,345.9c1.5-0.1,2.9-0.4,4.3-1C194.7,345.5,193.2,345.8,191.8,345.9z"/>
<path d="M190.6,355.7c1.5,0.2,3,0,4.4-0.7c0.1-0.1,0-0.2-0.1-0.2c-1.4,0.5-2.8,0.8-4.2,0.7C190.5,355.5,190.5,355.7,190.6,355.7z"/>
<path d="M292.3,305.2c1-0.3,2-0.7,2.9-1.2c0.1,0,0.1-0.1,0-0.2l-0.1-0.1c-1,0.3-2,0.7-2.9,1.2c-0.1,0-0.1,0.1-0.1,0.2
	C292.2,305.1,292.2,305.2,292.3,305.2z"/>
<path d="M169.7,115.1c0.3,0.7,1.2,1.3,2,0.9c0.1-0.1,0.1-0.2,0.1-0.3l-0.1-0.1c-0.6-0.1-1.3-0.2-1.7-0.7c0-0.1-0.1-0.1-0.2,0
	C169.6,114.9,169.6,115,169.7,115.1z"/>
<path d="M248.5,274.1c4.8,4.1,10.2,7.3,16.3,9.1c0.2,0.1,0.3-0.3,0.1-0.3C259.1,280.7,253.5,277.8,248.5,274.1
	C248.5,274,248.5,274,248.5,274.1z"/>
<path d="M138.9,110.5c3.8,0.8,7.8,0.4,11.3-1.2c0.3-0.1,0.1-0.6-0.2-0.5c-3.6,1.1-7.3,1.6-11.1,1.3c-0.1,0-0.2,0.1-0.2,0.2
	C138.8,110.4,138.9,110.5,138.9,110.5z"/>
<path d="M138,112.9c0.3,1.2,1.4,2.1,2.7,2.1c0.2,0,0.3-0.1,0.3-0.3c0-0.2-0.1-0.3-0.3-0.3c-1,0-2-0.7-2.3-1.7c0-0.1-0.2-0.2-0.3-0.1
	C138,112.7,138,112.8,138,112.9z"/>
<path d="M141.7,113.3c0.4,1.3,1.5,2.3,2.8,2.6c0.1,0,0.2,0,0.2-0.1c0-0.1,0-0.2-0.1-0.2c-1.2-0.3-2.1-1.2-2.6-2.3
	C141.9,113,141.6,113.1,141.7,113.3z"/>
<path d="M107.9,77.3c2.3,6.2,5.4,12.1,9.2,17.5c0.2,0.2,0.5,0,0.4-0.2c-1.7-2.8-3.5-5.6-5-8.5c-1.6-2.9-2.9-5.9-4.4-8.9
	C108,77.1,107.8,77.2,107.9,77.3z"/>
<path d="M183.7,40.8c2.1,3.3,3.9,6.7,5.2,10.4c1.3,3.5,1.9,7.1,2.6,10.8c0,0.1,0.1,0.1,0.2,0.1c0.1,0,0.1-0.1,0.1-0.2
	c-0.2-3.8-1.3-7.6-2.6-11.1c-1.3-3.6-3.1-7-5.4-10.1C183.7,40.6,183.6,40.7,183.7,40.8z"/>
<path d="M165.4,98.4c5.3-2,10.6-4.4,15-7.9c0.2-0.1,0-0.4-0.2-0.3c-4.8,3-9.6,5.8-14.9,8C165.2,98.2,165.3,98.4,165.4,98.4z"/>
<path d="M276.3,299.7c0.6,1.9,0.1,3.3-0.6,5c-0.1,0.2,0.2,0.3,0.3,0.2c1.4-1.4,1.3-3.7,0.6-5.4C276.6,299.4,276.2,299.5,276.3,299.7
	z"/>
</svg>
